M48
; DRILL file {KiCad 5.1.9} date Sat Feb  6 22:45:41 2021
; FORMAT={-:-/ absolute / inch / decimal}
; #@! TF.CreationDate,2021-02-06T22:45:41+01:00
; #@! TF.GenerationSoftware,Kicad,Pcbnew,5.1.9
FMAT,2
INCH
T1C0.0157
T2C0.0315
T3C0.0394
T4C0.1260
%
G90
G05
T1
X3.3465Y-1.2008
T2
X3.2039Y-1.063
X3.5039Y-1.063
T3
X3.0516Y-1.4098
X3.0516Y-1.5098
X3.0516Y-1.6098
X3.0516Y-1.7098
X3.0516Y-1.8098
X3.0516Y-1.9098
X3.1016Y-0.8598
X3.1516Y-1.4098
X3.1516Y-1.5098
X3.1516Y-1.6098
X3.1516Y-1.7098
X3.1516Y-1.8098
X3.1516Y-1.9098
X3.2016Y-0.8598
X3.3016Y-0.8598
X3.4016Y-0.8598
X3.5016Y-0.8598
X3.6016Y-0.8598
X3.7016Y-0.8598
X3.8016Y-0.8598
X4.0016Y-1.1598
X4.0016Y-1.2689
X4.0016Y-1.378
X4.0016Y-1.487
X4.0016Y-1.5961
X4.1134Y-1.2144
X4.1134Y-1.3234
X4.1134Y-1.4325
X4.1134Y-1.5415
T4
X4.0575Y-0.8858
X4.0575Y-1.8701
T0
M30
