%TF.GenerationSoftware,KiCad,Pcbnew,5.1.9*%
%TF.CreationDate,2021-02-06T22:45:37+01:00*%
%TF.ProjectId,linear_encoder,6c696e65-6172-45f6-956e-636f6465722e,0*%
%TF.SameCoordinates,Original*%
%TF.FileFunction,Legend,Bot*%
%TF.FilePolarity,Positive*%
%FSLAX46Y46*%
G04 Gerber Fmt 4.6, Leading zero omitted, Abs format (unit mm)*
G04 Created by KiCad (PCBNEW 5.1.9) date 2021-02-06 22:45:37*
%MOMM*%
%LPD*%
G01*
G04 APERTURE LIST*
%ADD10C,0.300000*%
%TA.AperFunction,Profile*%
%ADD11C,0.100000*%
%TD*%
G04 APERTURE END LIST*
D10*
X97805000Y-32332142D02*
X97947857Y-32403571D01*
X98233571Y-32403571D01*
X98376428Y-32332142D01*
X98447857Y-32260714D01*
X98519285Y-32117857D01*
X98519285Y-31689285D01*
X98447857Y-31546428D01*
X98376428Y-31475000D01*
X98233571Y-31403571D01*
X97947857Y-31403571D01*
X97805000Y-31475000D01*
X97162142Y-32403571D02*
X97162142Y-30903571D01*
X96519285Y-32403571D02*
X96519285Y-31617857D01*
X96590714Y-31475000D01*
X96733571Y-31403571D01*
X96947857Y-31403571D01*
X97090714Y-31475000D01*
X97162142Y-31546428D01*
X95805000Y-32403571D02*
X95805000Y-31403571D01*
X95805000Y-31689285D02*
X95733571Y-31546428D01*
X95662142Y-31475000D01*
X95519285Y-31403571D01*
X95376428Y-31403571D01*
X94876428Y-32403571D02*
X94876428Y-31403571D01*
X94876428Y-30903571D02*
X94947857Y-30975000D01*
X94876428Y-31046428D01*
X94805000Y-30975000D01*
X94876428Y-30903571D01*
X94876428Y-31046428D01*
X94233571Y-32332142D02*
X94090714Y-32403571D01*
X93805000Y-32403571D01*
X93662142Y-32332142D01*
X93590714Y-32189285D01*
X93590714Y-32117857D01*
X93662142Y-31975000D01*
X93805000Y-31903571D01*
X94019285Y-31903571D01*
X94162142Y-31832142D01*
X94233571Y-31689285D01*
X94233571Y-31617857D01*
X94162142Y-31475000D01*
X94019285Y-31403571D01*
X93805000Y-31403571D01*
X93662142Y-31475000D01*
X93162142Y-31403571D02*
X92590714Y-31403571D01*
X92947857Y-30903571D02*
X92947857Y-32189285D01*
X92876428Y-32332142D01*
X92733571Y-32403571D01*
X92590714Y-32403571D01*
X91876428Y-32403571D02*
X92019285Y-32332142D01*
X92090714Y-32260714D01*
X92162142Y-32117857D01*
X92162142Y-31689285D01*
X92090714Y-31546428D01*
X92019285Y-31475000D01*
X91876428Y-31403571D01*
X91662142Y-31403571D01*
X91519285Y-31475000D01*
X91447857Y-31546428D01*
X91376428Y-31689285D01*
X91376428Y-32117857D01*
X91447857Y-32260714D01*
X91519285Y-32332142D01*
X91662142Y-32403571D01*
X91876428Y-32403571D01*
X90733571Y-31403571D02*
X90733571Y-32903571D01*
X90733571Y-31475000D02*
X90590714Y-31403571D01*
X90305000Y-31403571D01*
X90162142Y-31475000D01*
X90090714Y-31546428D01*
X90019285Y-31689285D01*
X90019285Y-32117857D01*
X90090714Y-32260714D01*
X90162142Y-32332142D01*
X90305000Y-32403571D01*
X90590714Y-32403571D01*
X90733571Y-32332142D01*
X89376428Y-32403571D02*
X89376428Y-30903571D01*
X88733571Y-32403571D02*
X88733571Y-31617857D01*
X88805000Y-31475000D01*
X88947857Y-31403571D01*
X89162142Y-31403571D01*
X89305000Y-31475000D01*
X89376428Y-31546428D01*
X88019285Y-32403571D02*
X88019285Y-31403571D01*
X88019285Y-31546428D02*
X87947857Y-31475000D01*
X87805000Y-31403571D01*
X87590714Y-31403571D01*
X87447857Y-31475000D01*
X87376428Y-31617857D01*
X87376428Y-32403571D01*
X87376428Y-31617857D02*
X87305000Y-31475000D01*
X87162142Y-31403571D01*
X86947857Y-31403571D01*
X86805000Y-31475000D01*
X86733571Y-31617857D01*
X86733571Y-32403571D01*
X85376428Y-31403571D02*
X85376428Y-32403571D01*
X86019285Y-31403571D02*
X86019285Y-32189285D01*
X85947857Y-32332142D01*
X85805000Y-32403571D01*
X85590714Y-32403571D01*
X85447857Y-32332142D01*
X85376428Y-32260714D01*
X84090714Y-32332142D02*
X84233571Y-32403571D01*
X84519285Y-32403571D01*
X84662142Y-32332142D01*
X84733571Y-32189285D01*
X84733571Y-31617857D01*
X84662142Y-31475000D01*
X84519285Y-31403571D01*
X84233571Y-31403571D01*
X84090714Y-31475000D01*
X84019285Y-31617857D01*
X84019285Y-31760714D01*
X84733571Y-31903571D01*
X83162142Y-32403571D02*
X83305000Y-32332142D01*
X83376428Y-32189285D01*
X83376428Y-30903571D01*
X82376428Y-32403571D02*
X82519285Y-32332142D01*
X82590714Y-32189285D01*
X82590714Y-30903571D01*
X81233571Y-32332142D02*
X81376428Y-32403571D01*
X81662142Y-32403571D01*
X81805000Y-32332142D01*
X81876428Y-32189285D01*
X81876428Y-31617857D01*
X81805000Y-31475000D01*
X81662142Y-31403571D01*
X81376428Y-31403571D01*
X81233571Y-31475000D01*
X81162142Y-31617857D01*
X81162142Y-31760714D01*
X81876428Y-31903571D01*
X80519285Y-32403571D02*
X80519285Y-31403571D01*
X80519285Y-31689285D02*
X80447857Y-31546428D01*
X80376428Y-31475000D01*
X80233571Y-31403571D01*
X80090714Y-31403571D01*
X79590714Y-32260714D02*
X79519285Y-32332142D01*
X79590714Y-32403571D01*
X79662142Y-32332142D01*
X79590714Y-32260714D01*
X79590714Y-32403571D01*
X78662142Y-32403571D02*
X78805000Y-32332142D01*
X78876428Y-32260714D01*
X78947857Y-32117857D01*
X78947857Y-31689285D01*
X78876428Y-31546428D01*
X78805000Y-31475000D01*
X78662142Y-31403571D01*
X78447857Y-31403571D01*
X78305000Y-31475000D01*
X78233571Y-31546428D01*
X78162142Y-31689285D01*
X78162142Y-32117857D01*
X78233571Y-32260714D01*
X78305000Y-32332142D01*
X78447857Y-32403571D01*
X78662142Y-32403571D01*
X77519285Y-32403571D02*
X77519285Y-31403571D01*
X77519285Y-31689285D02*
X77447857Y-31546428D01*
X77376428Y-31475000D01*
X77233571Y-31403571D01*
X77090714Y-31403571D01*
X75947857Y-31403571D02*
X75947857Y-32617857D01*
X76019285Y-32760714D01*
X76090714Y-32832142D01*
X76233571Y-32903571D01*
X76447857Y-32903571D01*
X76590714Y-32832142D01*
X75947857Y-32332142D02*
X76090714Y-32403571D01*
X76376428Y-32403571D01*
X76519285Y-32332142D01*
X76590714Y-32260714D01*
X76662142Y-32117857D01*
X76662142Y-31689285D01*
X76590714Y-31546428D01*
X76519285Y-31475000D01*
X76376428Y-31403571D01*
X76090714Y-31403571D01*
X75947857Y-31475000D01*
X98519285Y-33596428D02*
X98447857Y-33525000D01*
X98305000Y-33453571D01*
X97947857Y-33453571D01*
X97805000Y-33525000D01*
X97733571Y-33596428D01*
X97662142Y-33739285D01*
X97662142Y-33882142D01*
X97733571Y-34096428D01*
X98590714Y-34953571D01*
X97662142Y-34953571D01*
X96733571Y-33453571D02*
X96590714Y-33453571D01*
X96447857Y-33525000D01*
X96376428Y-33596428D01*
X96305000Y-33739285D01*
X96233571Y-34025000D01*
X96233571Y-34382142D01*
X96305000Y-34667857D01*
X96376428Y-34810714D01*
X96447857Y-34882142D01*
X96590714Y-34953571D01*
X96733571Y-34953571D01*
X96876428Y-34882142D01*
X96947857Y-34810714D01*
X97019285Y-34667857D01*
X97090714Y-34382142D01*
X97090714Y-34025000D01*
X97019285Y-33739285D01*
X96947857Y-33596428D01*
X96876428Y-33525000D01*
X96733571Y-33453571D01*
X95662142Y-33596428D02*
X95590714Y-33525000D01*
X95447857Y-33453571D01*
X95090714Y-33453571D01*
X94947857Y-33525000D01*
X94876428Y-33596428D01*
X94805000Y-33739285D01*
X94805000Y-33882142D01*
X94876428Y-34096428D01*
X95733571Y-34953571D01*
X94805000Y-34953571D01*
X93376428Y-34953571D02*
X94233571Y-34953571D01*
X93805000Y-34953571D02*
X93805000Y-33453571D01*
X93947857Y-33667857D01*
X94090714Y-33810714D01*
X94233571Y-33882142D01*
D11*
X109000000Y-19000000D02*
X109000000Y-52000000D01*
X74000000Y-19000000D02*
X109000000Y-19000000D01*
X74000000Y-52000000D02*
X74000000Y-19000000D01*
X109000000Y-52000000D02*
X74000000Y-52000000D01*
M02*
