%TF.GenerationSoftware,KiCad,Pcbnew,5.1.9*%
%TF.CreationDate,2021-02-06T22:45:37+01:00*%
%TF.ProjectId,linear_encoder,6c696e65-6172-45f6-956e-636f6465722e,0*%
%TF.SameCoordinates,Original*%
%TF.FileFunction,Copper,L2,Bot*%
%TF.FilePolarity,Positive*%
%FSLAX46Y46*%
G04 Gerber Fmt 4.6, Leading zero omitted, Abs format (unit mm)*
G04 Created by KiCad (PCBNEW 5.1.9) date 2021-02-06 22:45:37*
%MOMM*%
%LPD*%
G01*
G04 APERTURE LIST*
%TA.AperFunction,Profile*%
%ADD10C,0.100000*%
%TD*%
%TA.AperFunction,ComponentPad*%
%ADD11O,1.700000X1.700000*%
%TD*%
%TA.AperFunction,ComponentPad*%
%ADD12R,1.700000X1.700000*%
%TD*%
%TA.AperFunction,ComponentPad*%
%ADD13C,4.000000*%
%TD*%
%TA.AperFunction,ComponentPad*%
%ADD14C,1.600000*%
%TD*%
%TA.AperFunction,ComponentPad*%
%ADD15R,1.600000X1.600000*%
%TD*%
%TA.AperFunction,ComponentPad*%
%ADD16O,1.600000X1.600000*%
%TD*%
%TA.AperFunction,ViaPad*%
%ADD17C,0.800000*%
%TD*%
%TA.AperFunction,Conductor*%
%ADD18C,0.500000*%
%TD*%
%TA.AperFunction,Conductor*%
%ADD19C,0.254000*%
%TD*%
%TA.AperFunction,Conductor*%
%ADD20C,0.150000*%
%TD*%
G04 APERTURE END LIST*
D10*
X109000000Y-19000000D02*
X109000000Y-52000000D01*
X74000000Y-19000000D02*
X109000000Y-19000000D01*
X74000000Y-52000000D02*
X74000000Y-19000000D01*
X109000000Y-52000000D02*
X74000000Y-52000000D01*
D11*
%TO.P,JPMOD1,12*%
%TO.N,Net-(D1-Pad2)*%
X77510000Y-35810000D03*
%TO.P,JPMOD1,11*%
%TO.N,/AL*%
X80050000Y-35810000D03*
%TO.P,JPMOD1,10*%
%TO.N,/IO2*%
X77510000Y-38350000D03*
%TO.P,JPMOD1,9*%
%TO.N,/BL*%
X80050000Y-38350000D03*
%TO.P,JPMOD1,8*%
%TO.N,/IO1*%
X77510000Y-40890000D03*
%TO.P,JPMOD1,7*%
%TO.N,/ZL*%
X80050000Y-40890000D03*
%TO.P,JPMOD1,6*%
%TO.N,/IO0*%
X77510000Y-43430000D03*
%TO.P,JPMOD1,5*%
%TO.N,Net-(JPMOD1-Pad5)*%
X80050000Y-43430000D03*
%TO.P,JPMOD1,4*%
%TO.N,GND*%
X77510000Y-45970000D03*
%TO.P,JPMOD1,3*%
X80050000Y-45970000D03*
%TO.P,JPMOD1,2*%
%TO.N,+3V3*%
X77510000Y-48510000D03*
D12*
%TO.P,JPMOD1,1*%
X80050000Y-48510000D03*
%TD*%
D13*
%TO.P,JDB9,0*%
%TO.N,N/C*%
X103060000Y-22500000D03*
X103060000Y-47500000D03*
D14*
%TO.P,JDB9,9*%
%TO.N,/Z*%
X104480000Y-39155000D03*
%TO.P,JDB9,8*%
%TO.N,/B*%
X104480000Y-36385000D03*
%TO.P,JDB9,7*%
%TO.N,+5V*%
X104480000Y-33615000D03*
%TO.P,JDB9,6*%
%TO.N,/A*%
X104480000Y-30845000D03*
%TO.P,JDB9,5*%
%TO.N,Net-(JDB9-Pad5)*%
X101640000Y-40540000D03*
%TO.P,JDB9,4*%
%TO.N,Net-(JDB9-Pad4)*%
X101640000Y-37770000D03*
%TO.P,JDB9,3*%
%TO.N,Net-(JDB9-Pad3)*%
X101640000Y-35000000D03*
%TO.P,JDB9,2*%
%TO.N,GND*%
X101640000Y-32230000D03*
D15*
%TO.P,JDB9,1*%
%TO.N,Net-(JDB9-Pad1)*%
X101640000Y-29460000D03*
%TD*%
D11*
%TO.P,J1,8*%
%TO.N,+5V*%
X96560000Y-21840000D03*
%TO.P,J1,7*%
%TO.N,+3V3*%
X94020000Y-21840000D03*
%TO.P,J1,6*%
%TO.N,GND*%
X91480000Y-21840000D03*
%TO.P,J1,5*%
%TO.N,/PROBE_IN*%
X88940000Y-21840000D03*
%TO.P,J1,4*%
%TO.N,/IO5V*%
X86400000Y-21840000D03*
%TO.P,J1,3*%
%TO.N,/IO2*%
X83860000Y-21840000D03*
%TO.P,J1,2*%
%TO.N,/IO1*%
X81320000Y-21840000D03*
D12*
%TO.P,J1,1*%
%TO.N,/IO0*%
X78780000Y-21840000D03*
%TD*%
D16*
%TO.P,D1,2*%
%TO.N,Net-(D1-Pad2)*%
X81380000Y-27000000D03*
D15*
%TO.P,D1,1*%
%TO.N,/PROBE_IN*%
X89000000Y-27000000D03*
%TD*%
D17*
%TO.N,GND*%
X85000000Y-30500000D03*
%TD*%
D18*
%TO.N,GND*%
X85000000Y-30500000D02*
X84500000Y-30500000D01*
%TD*%
D19*
%TO.N,GND*%
X101811859Y-20164893D02*
X101380285Y-20453262D01*
X101013262Y-20820285D01*
X100724893Y-21251859D01*
X100526261Y-21731399D01*
X100425000Y-22240475D01*
X100425000Y-22759525D01*
X100526261Y-23268601D01*
X100724893Y-23748141D01*
X101013262Y-24179715D01*
X101380285Y-24546738D01*
X101811859Y-24835107D01*
X102291399Y-25033739D01*
X102800475Y-25135000D01*
X103319525Y-25135000D01*
X103828601Y-25033739D01*
X104308141Y-24835107D01*
X104739715Y-24546738D01*
X105106738Y-24179715D01*
X105395107Y-23748141D01*
X105593739Y-23268601D01*
X105695000Y-22759525D01*
X105695000Y-22240475D01*
X105593739Y-21731399D01*
X105395107Y-21251859D01*
X105106738Y-20820285D01*
X104739715Y-20453262D01*
X104308141Y-20164893D01*
X104216659Y-20127000D01*
X107873000Y-20127000D01*
X107873000Y-50873000D01*
X75127000Y-50873000D01*
X75127000Y-48363740D01*
X76025000Y-48363740D01*
X76025000Y-48656260D01*
X76082068Y-48943158D01*
X76194010Y-49213411D01*
X76356525Y-49456632D01*
X76563368Y-49663475D01*
X76806589Y-49825990D01*
X77076842Y-49937932D01*
X77363740Y-49995000D01*
X77656260Y-49995000D01*
X77943158Y-49937932D01*
X78213411Y-49825990D01*
X78456632Y-49663475D01*
X78588487Y-49531620D01*
X78610498Y-49604180D01*
X78669463Y-49714494D01*
X78748815Y-49811185D01*
X78845506Y-49890537D01*
X78955820Y-49949502D01*
X79075518Y-49985812D01*
X79200000Y-49998072D01*
X80900000Y-49998072D01*
X81024482Y-49985812D01*
X81144180Y-49949502D01*
X81254494Y-49890537D01*
X81351185Y-49811185D01*
X81430537Y-49714494D01*
X81489502Y-49604180D01*
X81525812Y-49484482D01*
X81538072Y-49360000D01*
X81538072Y-47660000D01*
X81525812Y-47535518D01*
X81489502Y-47415820D01*
X81430537Y-47305506D01*
X81377168Y-47240475D01*
X100425000Y-47240475D01*
X100425000Y-47759525D01*
X100526261Y-48268601D01*
X100724893Y-48748141D01*
X101013262Y-49179715D01*
X101380285Y-49546738D01*
X101811859Y-49835107D01*
X102291399Y-50033739D01*
X102800475Y-50135000D01*
X103319525Y-50135000D01*
X103828601Y-50033739D01*
X104308141Y-49835107D01*
X104739715Y-49546738D01*
X105106738Y-49179715D01*
X105395107Y-48748141D01*
X105593739Y-48268601D01*
X105695000Y-47759525D01*
X105695000Y-47240475D01*
X105593739Y-46731399D01*
X105395107Y-46251859D01*
X105106738Y-45820285D01*
X104739715Y-45453262D01*
X104308141Y-45164893D01*
X103828601Y-44966261D01*
X103319525Y-44865000D01*
X102800475Y-44865000D01*
X102291399Y-44966261D01*
X101811859Y-45164893D01*
X101380285Y-45453262D01*
X101013262Y-45820285D01*
X100724893Y-46251859D01*
X100526261Y-46731399D01*
X100425000Y-47240475D01*
X81377168Y-47240475D01*
X81351185Y-47208815D01*
X81254494Y-47129463D01*
X81144180Y-47070498D01*
X81063534Y-47046034D01*
X81147588Y-46970269D01*
X81321641Y-46736920D01*
X81446825Y-46474099D01*
X81491476Y-46326890D01*
X81370155Y-46097000D01*
X80177000Y-46097000D01*
X80177000Y-46117000D01*
X79923000Y-46117000D01*
X79923000Y-46097000D01*
X77637000Y-46097000D01*
X77637000Y-46117000D01*
X77383000Y-46117000D01*
X77383000Y-46097000D01*
X76189845Y-46097000D01*
X76068524Y-46326890D01*
X76113175Y-46474099D01*
X76238359Y-46736920D01*
X76412412Y-46970269D01*
X76628645Y-47165178D01*
X76745534Y-47234805D01*
X76563368Y-47356525D01*
X76356525Y-47563368D01*
X76194010Y-47806589D01*
X76082068Y-48076842D01*
X76025000Y-48363740D01*
X75127000Y-48363740D01*
X75127000Y-35663740D01*
X76025000Y-35663740D01*
X76025000Y-35956260D01*
X76082068Y-36243158D01*
X76194010Y-36513411D01*
X76356525Y-36756632D01*
X76563368Y-36963475D01*
X76737760Y-37080000D01*
X76563368Y-37196525D01*
X76356525Y-37403368D01*
X76194010Y-37646589D01*
X76082068Y-37916842D01*
X76025000Y-38203740D01*
X76025000Y-38496260D01*
X76082068Y-38783158D01*
X76194010Y-39053411D01*
X76356525Y-39296632D01*
X76563368Y-39503475D01*
X76737760Y-39620000D01*
X76563368Y-39736525D01*
X76356525Y-39943368D01*
X76194010Y-40186589D01*
X76082068Y-40456842D01*
X76025000Y-40743740D01*
X76025000Y-41036260D01*
X76082068Y-41323158D01*
X76194010Y-41593411D01*
X76356525Y-41836632D01*
X76563368Y-42043475D01*
X76737760Y-42160000D01*
X76563368Y-42276525D01*
X76356525Y-42483368D01*
X76194010Y-42726589D01*
X76082068Y-42996842D01*
X76025000Y-43283740D01*
X76025000Y-43576260D01*
X76082068Y-43863158D01*
X76194010Y-44133411D01*
X76356525Y-44376632D01*
X76563368Y-44583475D01*
X76745534Y-44705195D01*
X76628645Y-44774822D01*
X76412412Y-44969731D01*
X76238359Y-45203080D01*
X76113175Y-45465901D01*
X76068524Y-45613110D01*
X76189845Y-45843000D01*
X77383000Y-45843000D01*
X77383000Y-45823000D01*
X77637000Y-45823000D01*
X77637000Y-45843000D01*
X79923000Y-45843000D01*
X79923000Y-45823000D01*
X80177000Y-45823000D01*
X80177000Y-45843000D01*
X81370155Y-45843000D01*
X81491476Y-45613110D01*
X81446825Y-45465901D01*
X81321641Y-45203080D01*
X81147588Y-44969731D01*
X80931355Y-44774822D01*
X80814466Y-44705195D01*
X80996632Y-44583475D01*
X81203475Y-44376632D01*
X81365990Y-44133411D01*
X81477932Y-43863158D01*
X81535000Y-43576260D01*
X81535000Y-43283740D01*
X81477932Y-42996842D01*
X81365990Y-42726589D01*
X81203475Y-42483368D01*
X80996632Y-42276525D01*
X80822240Y-42160000D01*
X80996632Y-42043475D01*
X81203475Y-41836632D01*
X81365990Y-41593411D01*
X81477932Y-41323158D01*
X81535000Y-41036260D01*
X81535000Y-40743740D01*
X81477932Y-40456842D01*
X81365990Y-40186589D01*
X81203475Y-39943368D01*
X80996632Y-39736525D01*
X80822240Y-39620000D01*
X80996632Y-39503475D01*
X81203475Y-39296632D01*
X81365990Y-39053411D01*
X81477932Y-38783158D01*
X81535000Y-38496260D01*
X81535000Y-38203740D01*
X81477932Y-37916842D01*
X81365990Y-37646589D01*
X81203475Y-37403368D01*
X80996632Y-37196525D01*
X80822240Y-37080000D01*
X80996632Y-36963475D01*
X81203475Y-36756632D01*
X81365990Y-36513411D01*
X81477932Y-36243158D01*
X81535000Y-35956260D01*
X81535000Y-35663740D01*
X81477932Y-35376842D01*
X81365990Y-35106589D01*
X81203475Y-34863368D01*
X81198772Y-34858665D01*
X100205000Y-34858665D01*
X100205000Y-35141335D01*
X100260147Y-35418574D01*
X100368320Y-35679727D01*
X100525363Y-35914759D01*
X100725241Y-36114637D01*
X100960273Y-36271680D01*
X101221426Y-36379853D01*
X101247301Y-36385000D01*
X101221426Y-36390147D01*
X100960273Y-36498320D01*
X100725241Y-36655363D01*
X100525363Y-36855241D01*
X100368320Y-37090273D01*
X100260147Y-37351426D01*
X100205000Y-37628665D01*
X100205000Y-37911335D01*
X100260147Y-38188574D01*
X100368320Y-38449727D01*
X100525363Y-38684759D01*
X100725241Y-38884637D01*
X100960273Y-39041680D01*
X101221426Y-39149853D01*
X101247301Y-39155000D01*
X101221426Y-39160147D01*
X100960273Y-39268320D01*
X100725241Y-39425363D01*
X100525363Y-39625241D01*
X100368320Y-39860273D01*
X100260147Y-40121426D01*
X100205000Y-40398665D01*
X100205000Y-40681335D01*
X100260147Y-40958574D01*
X100368320Y-41219727D01*
X100525363Y-41454759D01*
X100725241Y-41654637D01*
X100960273Y-41811680D01*
X101221426Y-41919853D01*
X101498665Y-41975000D01*
X101781335Y-41975000D01*
X102058574Y-41919853D01*
X102319727Y-41811680D01*
X102554759Y-41654637D01*
X102754637Y-41454759D01*
X102911680Y-41219727D01*
X103019853Y-40958574D01*
X103075000Y-40681335D01*
X103075000Y-40398665D01*
X103019853Y-40121426D01*
X102911680Y-39860273D01*
X102754637Y-39625241D01*
X102554759Y-39425363D01*
X102319727Y-39268320D01*
X102058574Y-39160147D01*
X102032699Y-39155000D01*
X102058574Y-39149853D01*
X102319727Y-39041680D01*
X102554759Y-38884637D01*
X102754637Y-38684759D01*
X102911680Y-38449727D01*
X103019853Y-38188574D01*
X103075000Y-37911335D01*
X103075000Y-37628665D01*
X103019853Y-37351426D01*
X102911680Y-37090273D01*
X102754637Y-36855241D01*
X102554759Y-36655363D01*
X102319727Y-36498320D01*
X102058574Y-36390147D01*
X102032699Y-36385000D01*
X102058574Y-36379853D01*
X102319727Y-36271680D01*
X102554759Y-36114637D01*
X102754637Y-35914759D01*
X102911680Y-35679727D01*
X103019853Y-35418574D01*
X103075000Y-35141335D01*
X103075000Y-34858665D01*
X103019853Y-34581426D01*
X102911680Y-34320273D01*
X102754637Y-34085241D01*
X102554759Y-33885363D01*
X102319727Y-33728320D01*
X102058574Y-33620147D01*
X102030118Y-33614487D01*
X102256292Y-33533603D01*
X102381514Y-33466671D01*
X102453097Y-33222702D01*
X101640000Y-32409605D01*
X100826903Y-33222702D01*
X100898486Y-33466671D01*
X101153996Y-33587571D01*
X101256289Y-33613212D01*
X101221426Y-33620147D01*
X100960273Y-33728320D01*
X100725241Y-33885363D01*
X100525363Y-34085241D01*
X100368320Y-34320273D01*
X100260147Y-34581426D01*
X100205000Y-34858665D01*
X81198772Y-34858665D01*
X80996632Y-34656525D01*
X80753411Y-34494010D01*
X80483158Y-34382068D01*
X80196260Y-34325000D01*
X79903740Y-34325000D01*
X79616842Y-34382068D01*
X79346589Y-34494010D01*
X79103368Y-34656525D01*
X78896525Y-34863368D01*
X78780000Y-35037760D01*
X78663475Y-34863368D01*
X78456632Y-34656525D01*
X78213411Y-34494010D01*
X77943158Y-34382068D01*
X77656260Y-34325000D01*
X77363740Y-34325000D01*
X77076842Y-34382068D01*
X76806589Y-34494010D01*
X76563368Y-34656525D01*
X76356525Y-34863368D01*
X76194010Y-35106589D01*
X76082068Y-35376842D01*
X76025000Y-35663740D01*
X75127000Y-35663740D01*
X75127000Y-32300512D01*
X100199783Y-32300512D01*
X100241213Y-32580130D01*
X100336397Y-32846292D01*
X100403329Y-32971514D01*
X100647298Y-33043097D01*
X101460395Y-32230000D01*
X101819605Y-32230000D01*
X102632702Y-33043097D01*
X102876671Y-32971514D01*
X102997571Y-32716004D01*
X103066300Y-32441816D01*
X103080217Y-32159488D01*
X103038787Y-31879870D01*
X102943603Y-31613708D01*
X102876671Y-31488486D01*
X102632702Y-31416903D01*
X101819605Y-32230000D01*
X101460395Y-32230000D01*
X100647298Y-31416903D01*
X100403329Y-31488486D01*
X100282429Y-31743996D01*
X100213700Y-32018184D01*
X100199783Y-32300512D01*
X75127000Y-32300512D01*
X75127000Y-28660000D01*
X100201928Y-28660000D01*
X100201928Y-30260000D01*
X100214188Y-30384482D01*
X100250498Y-30504180D01*
X100309463Y-30614494D01*
X100388815Y-30711185D01*
X100485506Y-30790537D01*
X100595820Y-30849502D01*
X100715518Y-30885812D01*
X100840000Y-30898072D01*
X101102913Y-30898072D01*
X101023708Y-30926397D01*
X100898486Y-30993329D01*
X100826903Y-31237298D01*
X101640000Y-32050395D01*
X102453097Y-31237298D01*
X102381514Y-30993329D01*
X102180198Y-30898072D01*
X102440000Y-30898072D01*
X102564482Y-30885812D01*
X102684180Y-30849502D01*
X102794494Y-30790537D01*
X102891185Y-30711185D01*
X102897356Y-30703665D01*
X103045000Y-30703665D01*
X103045000Y-30986335D01*
X103100147Y-31263574D01*
X103208320Y-31524727D01*
X103365363Y-31759759D01*
X103565241Y-31959637D01*
X103800273Y-32116680D01*
X104061426Y-32224853D01*
X104087301Y-32230000D01*
X104061426Y-32235147D01*
X103800273Y-32343320D01*
X103565241Y-32500363D01*
X103365363Y-32700241D01*
X103208320Y-32935273D01*
X103100147Y-33196426D01*
X103045000Y-33473665D01*
X103045000Y-33756335D01*
X103100147Y-34033574D01*
X103208320Y-34294727D01*
X103365363Y-34529759D01*
X103565241Y-34729637D01*
X103800273Y-34886680D01*
X104061426Y-34994853D01*
X104087301Y-35000000D01*
X104061426Y-35005147D01*
X103800273Y-35113320D01*
X103565241Y-35270363D01*
X103365363Y-35470241D01*
X103208320Y-35705273D01*
X103100147Y-35966426D01*
X103045000Y-36243665D01*
X103045000Y-36526335D01*
X103100147Y-36803574D01*
X103208320Y-37064727D01*
X103365363Y-37299759D01*
X103565241Y-37499637D01*
X103800273Y-37656680D01*
X104061426Y-37764853D01*
X104087301Y-37770000D01*
X104061426Y-37775147D01*
X103800273Y-37883320D01*
X103565241Y-38040363D01*
X103365363Y-38240241D01*
X103208320Y-38475273D01*
X103100147Y-38736426D01*
X103045000Y-39013665D01*
X103045000Y-39296335D01*
X103100147Y-39573574D01*
X103208320Y-39834727D01*
X103365363Y-40069759D01*
X103565241Y-40269637D01*
X103800273Y-40426680D01*
X104061426Y-40534853D01*
X104338665Y-40590000D01*
X104621335Y-40590000D01*
X104898574Y-40534853D01*
X105159727Y-40426680D01*
X105394759Y-40269637D01*
X105594637Y-40069759D01*
X105751680Y-39834727D01*
X105859853Y-39573574D01*
X105915000Y-39296335D01*
X105915000Y-39013665D01*
X105859853Y-38736426D01*
X105751680Y-38475273D01*
X105594637Y-38240241D01*
X105394759Y-38040363D01*
X105159727Y-37883320D01*
X104898574Y-37775147D01*
X104872699Y-37770000D01*
X104898574Y-37764853D01*
X105159727Y-37656680D01*
X105394759Y-37499637D01*
X105594637Y-37299759D01*
X105751680Y-37064727D01*
X105859853Y-36803574D01*
X105915000Y-36526335D01*
X105915000Y-36243665D01*
X105859853Y-35966426D01*
X105751680Y-35705273D01*
X105594637Y-35470241D01*
X105394759Y-35270363D01*
X105159727Y-35113320D01*
X104898574Y-35005147D01*
X104872699Y-35000000D01*
X104898574Y-34994853D01*
X105159727Y-34886680D01*
X105394759Y-34729637D01*
X105594637Y-34529759D01*
X105751680Y-34294727D01*
X105859853Y-34033574D01*
X105915000Y-33756335D01*
X105915000Y-33473665D01*
X105859853Y-33196426D01*
X105751680Y-32935273D01*
X105594637Y-32700241D01*
X105394759Y-32500363D01*
X105159727Y-32343320D01*
X104898574Y-32235147D01*
X104872699Y-32230000D01*
X104898574Y-32224853D01*
X105159727Y-32116680D01*
X105394759Y-31959637D01*
X105594637Y-31759759D01*
X105751680Y-31524727D01*
X105859853Y-31263574D01*
X105915000Y-30986335D01*
X105915000Y-30703665D01*
X105859853Y-30426426D01*
X105751680Y-30165273D01*
X105594637Y-29930241D01*
X105394759Y-29730363D01*
X105159727Y-29573320D01*
X104898574Y-29465147D01*
X104621335Y-29410000D01*
X104338665Y-29410000D01*
X104061426Y-29465147D01*
X103800273Y-29573320D01*
X103565241Y-29730363D01*
X103365363Y-29930241D01*
X103208320Y-30165273D01*
X103100147Y-30426426D01*
X103045000Y-30703665D01*
X102897356Y-30703665D01*
X102970537Y-30614494D01*
X103029502Y-30504180D01*
X103065812Y-30384482D01*
X103078072Y-30260000D01*
X103078072Y-28660000D01*
X103065812Y-28535518D01*
X103029502Y-28415820D01*
X102970537Y-28305506D01*
X102891185Y-28208815D01*
X102794494Y-28129463D01*
X102684180Y-28070498D01*
X102564482Y-28034188D01*
X102440000Y-28021928D01*
X100840000Y-28021928D01*
X100715518Y-28034188D01*
X100595820Y-28070498D01*
X100485506Y-28129463D01*
X100388815Y-28208815D01*
X100309463Y-28305506D01*
X100250498Y-28415820D01*
X100214188Y-28535518D01*
X100201928Y-28660000D01*
X75127000Y-28660000D01*
X75127000Y-26858665D01*
X79945000Y-26858665D01*
X79945000Y-27141335D01*
X80000147Y-27418574D01*
X80108320Y-27679727D01*
X80265363Y-27914759D01*
X80465241Y-28114637D01*
X80700273Y-28271680D01*
X80961426Y-28379853D01*
X81238665Y-28435000D01*
X81521335Y-28435000D01*
X81798574Y-28379853D01*
X82059727Y-28271680D01*
X82294759Y-28114637D01*
X82494637Y-27914759D01*
X82651680Y-27679727D01*
X82759853Y-27418574D01*
X82815000Y-27141335D01*
X82815000Y-26858665D01*
X82759853Y-26581426D01*
X82651680Y-26320273D01*
X82571317Y-26200000D01*
X87561928Y-26200000D01*
X87561928Y-27800000D01*
X87574188Y-27924482D01*
X87610498Y-28044180D01*
X87669463Y-28154494D01*
X87748815Y-28251185D01*
X87845506Y-28330537D01*
X87955820Y-28389502D01*
X88075518Y-28425812D01*
X88200000Y-28438072D01*
X89800000Y-28438072D01*
X89924482Y-28425812D01*
X90044180Y-28389502D01*
X90154494Y-28330537D01*
X90251185Y-28251185D01*
X90330537Y-28154494D01*
X90389502Y-28044180D01*
X90425812Y-27924482D01*
X90438072Y-27800000D01*
X90438072Y-26200000D01*
X90425812Y-26075518D01*
X90389502Y-25955820D01*
X90330537Y-25845506D01*
X90251185Y-25748815D01*
X90154494Y-25669463D01*
X90044180Y-25610498D01*
X89924482Y-25574188D01*
X89800000Y-25561928D01*
X88200000Y-25561928D01*
X88075518Y-25574188D01*
X87955820Y-25610498D01*
X87845506Y-25669463D01*
X87748815Y-25748815D01*
X87669463Y-25845506D01*
X87610498Y-25955820D01*
X87574188Y-26075518D01*
X87561928Y-26200000D01*
X82571317Y-26200000D01*
X82494637Y-26085241D01*
X82294759Y-25885363D01*
X82059727Y-25728320D01*
X81798574Y-25620147D01*
X81521335Y-25565000D01*
X81238665Y-25565000D01*
X80961426Y-25620147D01*
X80700273Y-25728320D01*
X80465241Y-25885363D01*
X80265363Y-26085241D01*
X80108320Y-26320273D01*
X80000147Y-26581426D01*
X79945000Y-26858665D01*
X75127000Y-26858665D01*
X75127000Y-20990000D01*
X77291928Y-20990000D01*
X77291928Y-22690000D01*
X77304188Y-22814482D01*
X77340498Y-22934180D01*
X77399463Y-23044494D01*
X77478815Y-23141185D01*
X77575506Y-23220537D01*
X77685820Y-23279502D01*
X77805518Y-23315812D01*
X77930000Y-23328072D01*
X79630000Y-23328072D01*
X79754482Y-23315812D01*
X79874180Y-23279502D01*
X79984494Y-23220537D01*
X80081185Y-23141185D01*
X80160537Y-23044494D01*
X80219502Y-22934180D01*
X80241513Y-22861620D01*
X80373368Y-22993475D01*
X80616589Y-23155990D01*
X80886842Y-23267932D01*
X81173740Y-23325000D01*
X81466260Y-23325000D01*
X81753158Y-23267932D01*
X82023411Y-23155990D01*
X82266632Y-22993475D01*
X82473475Y-22786632D01*
X82590000Y-22612240D01*
X82706525Y-22786632D01*
X82913368Y-22993475D01*
X83156589Y-23155990D01*
X83426842Y-23267932D01*
X83713740Y-23325000D01*
X84006260Y-23325000D01*
X84293158Y-23267932D01*
X84563411Y-23155990D01*
X84806632Y-22993475D01*
X85013475Y-22786632D01*
X85130000Y-22612240D01*
X85246525Y-22786632D01*
X85453368Y-22993475D01*
X85696589Y-23155990D01*
X85966842Y-23267932D01*
X86253740Y-23325000D01*
X86546260Y-23325000D01*
X86833158Y-23267932D01*
X87103411Y-23155990D01*
X87346632Y-22993475D01*
X87553475Y-22786632D01*
X87670000Y-22612240D01*
X87786525Y-22786632D01*
X87993368Y-22993475D01*
X88236589Y-23155990D01*
X88506842Y-23267932D01*
X88793740Y-23325000D01*
X89086260Y-23325000D01*
X89373158Y-23267932D01*
X89643411Y-23155990D01*
X89886632Y-22993475D01*
X90093475Y-22786632D01*
X90215195Y-22604466D01*
X90284822Y-22721355D01*
X90479731Y-22937588D01*
X90713080Y-23111641D01*
X90975901Y-23236825D01*
X91123110Y-23281476D01*
X91353000Y-23160155D01*
X91353000Y-21967000D01*
X91333000Y-21967000D01*
X91333000Y-21713000D01*
X91353000Y-21713000D01*
X91353000Y-20519845D01*
X91607000Y-20519845D01*
X91607000Y-21713000D01*
X91627000Y-21713000D01*
X91627000Y-21967000D01*
X91607000Y-21967000D01*
X91607000Y-23160155D01*
X91836890Y-23281476D01*
X91984099Y-23236825D01*
X92246920Y-23111641D01*
X92480269Y-22937588D01*
X92675178Y-22721355D01*
X92744805Y-22604466D01*
X92866525Y-22786632D01*
X93073368Y-22993475D01*
X93316589Y-23155990D01*
X93586842Y-23267932D01*
X93873740Y-23325000D01*
X94166260Y-23325000D01*
X94453158Y-23267932D01*
X94723411Y-23155990D01*
X94966632Y-22993475D01*
X95173475Y-22786632D01*
X95290000Y-22612240D01*
X95406525Y-22786632D01*
X95613368Y-22993475D01*
X95856589Y-23155990D01*
X96126842Y-23267932D01*
X96413740Y-23325000D01*
X96706260Y-23325000D01*
X96993158Y-23267932D01*
X97263411Y-23155990D01*
X97506632Y-22993475D01*
X97713475Y-22786632D01*
X97875990Y-22543411D01*
X97987932Y-22273158D01*
X98045000Y-21986260D01*
X98045000Y-21693740D01*
X97987932Y-21406842D01*
X97875990Y-21136589D01*
X97713475Y-20893368D01*
X97506632Y-20686525D01*
X97263411Y-20524010D01*
X96993158Y-20412068D01*
X96706260Y-20355000D01*
X96413740Y-20355000D01*
X96126842Y-20412068D01*
X95856589Y-20524010D01*
X95613368Y-20686525D01*
X95406525Y-20893368D01*
X95290000Y-21067760D01*
X95173475Y-20893368D01*
X94966632Y-20686525D01*
X94723411Y-20524010D01*
X94453158Y-20412068D01*
X94166260Y-20355000D01*
X93873740Y-20355000D01*
X93586842Y-20412068D01*
X93316589Y-20524010D01*
X93073368Y-20686525D01*
X92866525Y-20893368D01*
X92744805Y-21075534D01*
X92675178Y-20958645D01*
X92480269Y-20742412D01*
X92246920Y-20568359D01*
X91984099Y-20443175D01*
X91836890Y-20398524D01*
X91607000Y-20519845D01*
X91353000Y-20519845D01*
X91123110Y-20398524D01*
X90975901Y-20443175D01*
X90713080Y-20568359D01*
X90479731Y-20742412D01*
X90284822Y-20958645D01*
X90215195Y-21075534D01*
X90093475Y-20893368D01*
X89886632Y-20686525D01*
X89643411Y-20524010D01*
X89373158Y-20412068D01*
X89086260Y-20355000D01*
X88793740Y-20355000D01*
X88506842Y-20412068D01*
X88236589Y-20524010D01*
X87993368Y-20686525D01*
X87786525Y-20893368D01*
X87670000Y-21067760D01*
X87553475Y-20893368D01*
X87346632Y-20686525D01*
X87103411Y-20524010D01*
X86833158Y-20412068D01*
X86546260Y-20355000D01*
X86253740Y-20355000D01*
X85966842Y-20412068D01*
X85696589Y-20524010D01*
X85453368Y-20686525D01*
X85246525Y-20893368D01*
X85130000Y-21067760D01*
X85013475Y-20893368D01*
X84806632Y-20686525D01*
X84563411Y-20524010D01*
X84293158Y-20412068D01*
X84006260Y-20355000D01*
X83713740Y-20355000D01*
X83426842Y-20412068D01*
X83156589Y-20524010D01*
X82913368Y-20686525D01*
X82706525Y-20893368D01*
X82590000Y-21067760D01*
X82473475Y-20893368D01*
X82266632Y-20686525D01*
X82023411Y-20524010D01*
X81753158Y-20412068D01*
X81466260Y-20355000D01*
X81173740Y-20355000D01*
X80886842Y-20412068D01*
X80616589Y-20524010D01*
X80373368Y-20686525D01*
X80241513Y-20818380D01*
X80219502Y-20745820D01*
X80160537Y-20635506D01*
X80081185Y-20538815D01*
X79984494Y-20459463D01*
X79874180Y-20400498D01*
X79754482Y-20364188D01*
X79630000Y-20351928D01*
X77930000Y-20351928D01*
X77805518Y-20364188D01*
X77685820Y-20400498D01*
X77575506Y-20459463D01*
X77478815Y-20538815D01*
X77399463Y-20635506D01*
X77340498Y-20745820D01*
X77304188Y-20865518D01*
X77291928Y-20990000D01*
X75127000Y-20990000D01*
X75127000Y-20127000D01*
X101903341Y-20127000D01*
X101811859Y-20164893D01*
%TA.AperFunction,Conductor*%
D20*
G36*
X101811859Y-20164893D02*
G01*
X101380285Y-20453262D01*
X101013262Y-20820285D01*
X100724893Y-21251859D01*
X100526261Y-21731399D01*
X100425000Y-22240475D01*
X100425000Y-22759525D01*
X100526261Y-23268601D01*
X100724893Y-23748141D01*
X101013262Y-24179715D01*
X101380285Y-24546738D01*
X101811859Y-24835107D01*
X102291399Y-25033739D01*
X102800475Y-25135000D01*
X103319525Y-25135000D01*
X103828601Y-25033739D01*
X104308141Y-24835107D01*
X104739715Y-24546738D01*
X105106738Y-24179715D01*
X105395107Y-23748141D01*
X105593739Y-23268601D01*
X105695000Y-22759525D01*
X105695000Y-22240475D01*
X105593739Y-21731399D01*
X105395107Y-21251859D01*
X105106738Y-20820285D01*
X104739715Y-20453262D01*
X104308141Y-20164893D01*
X104216659Y-20127000D01*
X107873000Y-20127000D01*
X107873000Y-50873000D01*
X75127000Y-50873000D01*
X75127000Y-48363740D01*
X76025000Y-48363740D01*
X76025000Y-48656260D01*
X76082068Y-48943158D01*
X76194010Y-49213411D01*
X76356525Y-49456632D01*
X76563368Y-49663475D01*
X76806589Y-49825990D01*
X77076842Y-49937932D01*
X77363740Y-49995000D01*
X77656260Y-49995000D01*
X77943158Y-49937932D01*
X78213411Y-49825990D01*
X78456632Y-49663475D01*
X78588487Y-49531620D01*
X78610498Y-49604180D01*
X78669463Y-49714494D01*
X78748815Y-49811185D01*
X78845506Y-49890537D01*
X78955820Y-49949502D01*
X79075518Y-49985812D01*
X79200000Y-49998072D01*
X80900000Y-49998072D01*
X81024482Y-49985812D01*
X81144180Y-49949502D01*
X81254494Y-49890537D01*
X81351185Y-49811185D01*
X81430537Y-49714494D01*
X81489502Y-49604180D01*
X81525812Y-49484482D01*
X81538072Y-49360000D01*
X81538072Y-47660000D01*
X81525812Y-47535518D01*
X81489502Y-47415820D01*
X81430537Y-47305506D01*
X81377168Y-47240475D01*
X100425000Y-47240475D01*
X100425000Y-47759525D01*
X100526261Y-48268601D01*
X100724893Y-48748141D01*
X101013262Y-49179715D01*
X101380285Y-49546738D01*
X101811859Y-49835107D01*
X102291399Y-50033739D01*
X102800475Y-50135000D01*
X103319525Y-50135000D01*
X103828601Y-50033739D01*
X104308141Y-49835107D01*
X104739715Y-49546738D01*
X105106738Y-49179715D01*
X105395107Y-48748141D01*
X105593739Y-48268601D01*
X105695000Y-47759525D01*
X105695000Y-47240475D01*
X105593739Y-46731399D01*
X105395107Y-46251859D01*
X105106738Y-45820285D01*
X104739715Y-45453262D01*
X104308141Y-45164893D01*
X103828601Y-44966261D01*
X103319525Y-44865000D01*
X102800475Y-44865000D01*
X102291399Y-44966261D01*
X101811859Y-45164893D01*
X101380285Y-45453262D01*
X101013262Y-45820285D01*
X100724893Y-46251859D01*
X100526261Y-46731399D01*
X100425000Y-47240475D01*
X81377168Y-47240475D01*
X81351185Y-47208815D01*
X81254494Y-47129463D01*
X81144180Y-47070498D01*
X81063534Y-47046034D01*
X81147588Y-46970269D01*
X81321641Y-46736920D01*
X81446825Y-46474099D01*
X81491476Y-46326890D01*
X81370155Y-46097000D01*
X80177000Y-46097000D01*
X80177000Y-46117000D01*
X79923000Y-46117000D01*
X79923000Y-46097000D01*
X77637000Y-46097000D01*
X77637000Y-46117000D01*
X77383000Y-46117000D01*
X77383000Y-46097000D01*
X76189845Y-46097000D01*
X76068524Y-46326890D01*
X76113175Y-46474099D01*
X76238359Y-46736920D01*
X76412412Y-46970269D01*
X76628645Y-47165178D01*
X76745534Y-47234805D01*
X76563368Y-47356525D01*
X76356525Y-47563368D01*
X76194010Y-47806589D01*
X76082068Y-48076842D01*
X76025000Y-48363740D01*
X75127000Y-48363740D01*
X75127000Y-35663740D01*
X76025000Y-35663740D01*
X76025000Y-35956260D01*
X76082068Y-36243158D01*
X76194010Y-36513411D01*
X76356525Y-36756632D01*
X76563368Y-36963475D01*
X76737760Y-37080000D01*
X76563368Y-37196525D01*
X76356525Y-37403368D01*
X76194010Y-37646589D01*
X76082068Y-37916842D01*
X76025000Y-38203740D01*
X76025000Y-38496260D01*
X76082068Y-38783158D01*
X76194010Y-39053411D01*
X76356525Y-39296632D01*
X76563368Y-39503475D01*
X76737760Y-39620000D01*
X76563368Y-39736525D01*
X76356525Y-39943368D01*
X76194010Y-40186589D01*
X76082068Y-40456842D01*
X76025000Y-40743740D01*
X76025000Y-41036260D01*
X76082068Y-41323158D01*
X76194010Y-41593411D01*
X76356525Y-41836632D01*
X76563368Y-42043475D01*
X76737760Y-42160000D01*
X76563368Y-42276525D01*
X76356525Y-42483368D01*
X76194010Y-42726589D01*
X76082068Y-42996842D01*
X76025000Y-43283740D01*
X76025000Y-43576260D01*
X76082068Y-43863158D01*
X76194010Y-44133411D01*
X76356525Y-44376632D01*
X76563368Y-44583475D01*
X76745534Y-44705195D01*
X76628645Y-44774822D01*
X76412412Y-44969731D01*
X76238359Y-45203080D01*
X76113175Y-45465901D01*
X76068524Y-45613110D01*
X76189845Y-45843000D01*
X77383000Y-45843000D01*
X77383000Y-45823000D01*
X77637000Y-45823000D01*
X77637000Y-45843000D01*
X79923000Y-45843000D01*
X79923000Y-45823000D01*
X80177000Y-45823000D01*
X80177000Y-45843000D01*
X81370155Y-45843000D01*
X81491476Y-45613110D01*
X81446825Y-45465901D01*
X81321641Y-45203080D01*
X81147588Y-44969731D01*
X80931355Y-44774822D01*
X80814466Y-44705195D01*
X80996632Y-44583475D01*
X81203475Y-44376632D01*
X81365990Y-44133411D01*
X81477932Y-43863158D01*
X81535000Y-43576260D01*
X81535000Y-43283740D01*
X81477932Y-42996842D01*
X81365990Y-42726589D01*
X81203475Y-42483368D01*
X80996632Y-42276525D01*
X80822240Y-42160000D01*
X80996632Y-42043475D01*
X81203475Y-41836632D01*
X81365990Y-41593411D01*
X81477932Y-41323158D01*
X81535000Y-41036260D01*
X81535000Y-40743740D01*
X81477932Y-40456842D01*
X81365990Y-40186589D01*
X81203475Y-39943368D01*
X80996632Y-39736525D01*
X80822240Y-39620000D01*
X80996632Y-39503475D01*
X81203475Y-39296632D01*
X81365990Y-39053411D01*
X81477932Y-38783158D01*
X81535000Y-38496260D01*
X81535000Y-38203740D01*
X81477932Y-37916842D01*
X81365990Y-37646589D01*
X81203475Y-37403368D01*
X80996632Y-37196525D01*
X80822240Y-37080000D01*
X80996632Y-36963475D01*
X81203475Y-36756632D01*
X81365990Y-36513411D01*
X81477932Y-36243158D01*
X81535000Y-35956260D01*
X81535000Y-35663740D01*
X81477932Y-35376842D01*
X81365990Y-35106589D01*
X81203475Y-34863368D01*
X81198772Y-34858665D01*
X100205000Y-34858665D01*
X100205000Y-35141335D01*
X100260147Y-35418574D01*
X100368320Y-35679727D01*
X100525363Y-35914759D01*
X100725241Y-36114637D01*
X100960273Y-36271680D01*
X101221426Y-36379853D01*
X101247301Y-36385000D01*
X101221426Y-36390147D01*
X100960273Y-36498320D01*
X100725241Y-36655363D01*
X100525363Y-36855241D01*
X100368320Y-37090273D01*
X100260147Y-37351426D01*
X100205000Y-37628665D01*
X100205000Y-37911335D01*
X100260147Y-38188574D01*
X100368320Y-38449727D01*
X100525363Y-38684759D01*
X100725241Y-38884637D01*
X100960273Y-39041680D01*
X101221426Y-39149853D01*
X101247301Y-39155000D01*
X101221426Y-39160147D01*
X100960273Y-39268320D01*
X100725241Y-39425363D01*
X100525363Y-39625241D01*
X100368320Y-39860273D01*
X100260147Y-40121426D01*
X100205000Y-40398665D01*
X100205000Y-40681335D01*
X100260147Y-40958574D01*
X100368320Y-41219727D01*
X100525363Y-41454759D01*
X100725241Y-41654637D01*
X100960273Y-41811680D01*
X101221426Y-41919853D01*
X101498665Y-41975000D01*
X101781335Y-41975000D01*
X102058574Y-41919853D01*
X102319727Y-41811680D01*
X102554759Y-41654637D01*
X102754637Y-41454759D01*
X102911680Y-41219727D01*
X103019853Y-40958574D01*
X103075000Y-40681335D01*
X103075000Y-40398665D01*
X103019853Y-40121426D01*
X102911680Y-39860273D01*
X102754637Y-39625241D01*
X102554759Y-39425363D01*
X102319727Y-39268320D01*
X102058574Y-39160147D01*
X102032699Y-39155000D01*
X102058574Y-39149853D01*
X102319727Y-39041680D01*
X102554759Y-38884637D01*
X102754637Y-38684759D01*
X102911680Y-38449727D01*
X103019853Y-38188574D01*
X103075000Y-37911335D01*
X103075000Y-37628665D01*
X103019853Y-37351426D01*
X102911680Y-37090273D01*
X102754637Y-36855241D01*
X102554759Y-36655363D01*
X102319727Y-36498320D01*
X102058574Y-36390147D01*
X102032699Y-36385000D01*
X102058574Y-36379853D01*
X102319727Y-36271680D01*
X102554759Y-36114637D01*
X102754637Y-35914759D01*
X102911680Y-35679727D01*
X103019853Y-35418574D01*
X103075000Y-35141335D01*
X103075000Y-34858665D01*
X103019853Y-34581426D01*
X102911680Y-34320273D01*
X102754637Y-34085241D01*
X102554759Y-33885363D01*
X102319727Y-33728320D01*
X102058574Y-33620147D01*
X102030118Y-33614487D01*
X102256292Y-33533603D01*
X102381514Y-33466671D01*
X102453097Y-33222702D01*
X101640000Y-32409605D01*
X100826903Y-33222702D01*
X100898486Y-33466671D01*
X101153996Y-33587571D01*
X101256289Y-33613212D01*
X101221426Y-33620147D01*
X100960273Y-33728320D01*
X100725241Y-33885363D01*
X100525363Y-34085241D01*
X100368320Y-34320273D01*
X100260147Y-34581426D01*
X100205000Y-34858665D01*
X81198772Y-34858665D01*
X80996632Y-34656525D01*
X80753411Y-34494010D01*
X80483158Y-34382068D01*
X80196260Y-34325000D01*
X79903740Y-34325000D01*
X79616842Y-34382068D01*
X79346589Y-34494010D01*
X79103368Y-34656525D01*
X78896525Y-34863368D01*
X78780000Y-35037760D01*
X78663475Y-34863368D01*
X78456632Y-34656525D01*
X78213411Y-34494010D01*
X77943158Y-34382068D01*
X77656260Y-34325000D01*
X77363740Y-34325000D01*
X77076842Y-34382068D01*
X76806589Y-34494010D01*
X76563368Y-34656525D01*
X76356525Y-34863368D01*
X76194010Y-35106589D01*
X76082068Y-35376842D01*
X76025000Y-35663740D01*
X75127000Y-35663740D01*
X75127000Y-32300512D01*
X100199783Y-32300512D01*
X100241213Y-32580130D01*
X100336397Y-32846292D01*
X100403329Y-32971514D01*
X100647298Y-33043097D01*
X101460395Y-32230000D01*
X101819605Y-32230000D01*
X102632702Y-33043097D01*
X102876671Y-32971514D01*
X102997571Y-32716004D01*
X103066300Y-32441816D01*
X103080217Y-32159488D01*
X103038787Y-31879870D01*
X102943603Y-31613708D01*
X102876671Y-31488486D01*
X102632702Y-31416903D01*
X101819605Y-32230000D01*
X101460395Y-32230000D01*
X100647298Y-31416903D01*
X100403329Y-31488486D01*
X100282429Y-31743996D01*
X100213700Y-32018184D01*
X100199783Y-32300512D01*
X75127000Y-32300512D01*
X75127000Y-28660000D01*
X100201928Y-28660000D01*
X100201928Y-30260000D01*
X100214188Y-30384482D01*
X100250498Y-30504180D01*
X100309463Y-30614494D01*
X100388815Y-30711185D01*
X100485506Y-30790537D01*
X100595820Y-30849502D01*
X100715518Y-30885812D01*
X100840000Y-30898072D01*
X101102913Y-30898072D01*
X101023708Y-30926397D01*
X100898486Y-30993329D01*
X100826903Y-31237298D01*
X101640000Y-32050395D01*
X102453097Y-31237298D01*
X102381514Y-30993329D01*
X102180198Y-30898072D01*
X102440000Y-30898072D01*
X102564482Y-30885812D01*
X102684180Y-30849502D01*
X102794494Y-30790537D01*
X102891185Y-30711185D01*
X102897356Y-30703665D01*
X103045000Y-30703665D01*
X103045000Y-30986335D01*
X103100147Y-31263574D01*
X103208320Y-31524727D01*
X103365363Y-31759759D01*
X103565241Y-31959637D01*
X103800273Y-32116680D01*
X104061426Y-32224853D01*
X104087301Y-32230000D01*
X104061426Y-32235147D01*
X103800273Y-32343320D01*
X103565241Y-32500363D01*
X103365363Y-32700241D01*
X103208320Y-32935273D01*
X103100147Y-33196426D01*
X103045000Y-33473665D01*
X103045000Y-33756335D01*
X103100147Y-34033574D01*
X103208320Y-34294727D01*
X103365363Y-34529759D01*
X103565241Y-34729637D01*
X103800273Y-34886680D01*
X104061426Y-34994853D01*
X104087301Y-35000000D01*
X104061426Y-35005147D01*
X103800273Y-35113320D01*
X103565241Y-35270363D01*
X103365363Y-35470241D01*
X103208320Y-35705273D01*
X103100147Y-35966426D01*
X103045000Y-36243665D01*
X103045000Y-36526335D01*
X103100147Y-36803574D01*
X103208320Y-37064727D01*
X103365363Y-37299759D01*
X103565241Y-37499637D01*
X103800273Y-37656680D01*
X104061426Y-37764853D01*
X104087301Y-37770000D01*
X104061426Y-37775147D01*
X103800273Y-37883320D01*
X103565241Y-38040363D01*
X103365363Y-38240241D01*
X103208320Y-38475273D01*
X103100147Y-38736426D01*
X103045000Y-39013665D01*
X103045000Y-39296335D01*
X103100147Y-39573574D01*
X103208320Y-39834727D01*
X103365363Y-40069759D01*
X103565241Y-40269637D01*
X103800273Y-40426680D01*
X104061426Y-40534853D01*
X104338665Y-40590000D01*
X104621335Y-40590000D01*
X104898574Y-40534853D01*
X105159727Y-40426680D01*
X105394759Y-40269637D01*
X105594637Y-40069759D01*
X105751680Y-39834727D01*
X105859853Y-39573574D01*
X105915000Y-39296335D01*
X105915000Y-39013665D01*
X105859853Y-38736426D01*
X105751680Y-38475273D01*
X105594637Y-38240241D01*
X105394759Y-38040363D01*
X105159727Y-37883320D01*
X104898574Y-37775147D01*
X104872699Y-37770000D01*
X104898574Y-37764853D01*
X105159727Y-37656680D01*
X105394759Y-37499637D01*
X105594637Y-37299759D01*
X105751680Y-37064727D01*
X105859853Y-36803574D01*
X105915000Y-36526335D01*
X105915000Y-36243665D01*
X105859853Y-35966426D01*
X105751680Y-35705273D01*
X105594637Y-35470241D01*
X105394759Y-35270363D01*
X105159727Y-35113320D01*
X104898574Y-35005147D01*
X104872699Y-35000000D01*
X104898574Y-34994853D01*
X105159727Y-34886680D01*
X105394759Y-34729637D01*
X105594637Y-34529759D01*
X105751680Y-34294727D01*
X105859853Y-34033574D01*
X105915000Y-33756335D01*
X105915000Y-33473665D01*
X105859853Y-33196426D01*
X105751680Y-32935273D01*
X105594637Y-32700241D01*
X105394759Y-32500363D01*
X105159727Y-32343320D01*
X104898574Y-32235147D01*
X104872699Y-32230000D01*
X104898574Y-32224853D01*
X105159727Y-32116680D01*
X105394759Y-31959637D01*
X105594637Y-31759759D01*
X105751680Y-31524727D01*
X105859853Y-31263574D01*
X105915000Y-30986335D01*
X105915000Y-30703665D01*
X105859853Y-30426426D01*
X105751680Y-30165273D01*
X105594637Y-29930241D01*
X105394759Y-29730363D01*
X105159727Y-29573320D01*
X104898574Y-29465147D01*
X104621335Y-29410000D01*
X104338665Y-29410000D01*
X104061426Y-29465147D01*
X103800273Y-29573320D01*
X103565241Y-29730363D01*
X103365363Y-29930241D01*
X103208320Y-30165273D01*
X103100147Y-30426426D01*
X103045000Y-30703665D01*
X102897356Y-30703665D01*
X102970537Y-30614494D01*
X103029502Y-30504180D01*
X103065812Y-30384482D01*
X103078072Y-30260000D01*
X103078072Y-28660000D01*
X103065812Y-28535518D01*
X103029502Y-28415820D01*
X102970537Y-28305506D01*
X102891185Y-28208815D01*
X102794494Y-28129463D01*
X102684180Y-28070498D01*
X102564482Y-28034188D01*
X102440000Y-28021928D01*
X100840000Y-28021928D01*
X100715518Y-28034188D01*
X100595820Y-28070498D01*
X100485506Y-28129463D01*
X100388815Y-28208815D01*
X100309463Y-28305506D01*
X100250498Y-28415820D01*
X100214188Y-28535518D01*
X100201928Y-28660000D01*
X75127000Y-28660000D01*
X75127000Y-26858665D01*
X79945000Y-26858665D01*
X79945000Y-27141335D01*
X80000147Y-27418574D01*
X80108320Y-27679727D01*
X80265363Y-27914759D01*
X80465241Y-28114637D01*
X80700273Y-28271680D01*
X80961426Y-28379853D01*
X81238665Y-28435000D01*
X81521335Y-28435000D01*
X81798574Y-28379853D01*
X82059727Y-28271680D01*
X82294759Y-28114637D01*
X82494637Y-27914759D01*
X82651680Y-27679727D01*
X82759853Y-27418574D01*
X82815000Y-27141335D01*
X82815000Y-26858665D01*
X82759853Y-26581426D01*
X82651680Y-26320273D01*
X82571317Y-26200000D01*
X87561928Y-26200000D01*
X87561928Y-27800000D01*
X87574188Y-27924482D01*
X87610498Y-28044180D01*
X87669463Y-28154494D01*
X87748815Y-28251185D01*
X87845506Y-28330537D01*
X87955820Y-28389502D01*
X88075518Y-28425812D01*
X88200000Y-28438072D01*
X89800000Y-28438072D01*
X89924482Y-28425812D01*
X90044180Y-28389502D01*
X90154494Y-28330537D01*
X90251185Y-28251185D01*
X90330537Y-28154494D01*
X90389502Y-28044180D01*
X90425812Y-27924482D01*
X90438072Y-27800000D01*
X90438072Y-26200000D01*
X90425812Y-26075518D01*
X90389502Y-25955820D01*
X90330537Y-25845506D01*
X90251185Y-25748815D01*
X90154494Y-25669463D01*
X90044180Y-25610498D01*
X89924482Y-25574188D01*
X89800000Y-25561928D01*
X88200000Y-25561928D01*
X88075518Y-25574188D01*
X87955820Y-25610498D01*
X87845506Y-25669463D01*
X87748815Y-25748815D01*
X87669463Y-25845506D01*
X87610498Y-25955820D01*
X87574188Y-26075518D01*
X87561928Y-26200000D01*
X82571317Y-26200000D01*
X82494637Y-26085241D01*
X82294759Y-25885363D01*
X82059727Y-25728320D01*
X81798574Y-25620147D01*
X81521335Y-25565000D01*
X81238665Y-25565000D01*
X80961426Y-25620147D01*
X80700273Y-25728320D01*
X80465241Y-25885363D01*
X80265363Y-26085241D01*
X80108320Y-26320273D01*
X80000147Y-26581426D01*
X79945000Y-26858665D01*
X75127000Y-26858665D01*
X75127000Y-20990000D01*
X77291928Y-20990000D01*
X77291928Y-22690000D01*
X77304188Y-22814482D01*
X77340498Y-22934180D01*
X77399463Y-23044494D01*
X77478815Y-23141185D01*
X77575506Y-23220537D01*
X77685820Y-23279502D01*
X77805518Y-23315812D01*
X77930000Y-23328072D01*
X79630000Y-23328072D01*
X79754482Y-23315812D01*
X79874180Y-23279502D01*
X79984494Y-23220537D01*
X80081185Y-23141185D01*
X80160537Y-23044494D01*
X80219502Y-22934180D01*
X80241513Y-22861620D01*
X80373368Y-22993475D01*
X80616589Y-23155990D01*
X80886842Y-23267932D01*
X81173740Y-23325000D01*
X81466260Y-23325000D01*
X81753158Y-23267932D01*
X82023411Y-23155990D01*
X82266632Y-22993475D01*
X82473475Y-22786632D01*
X82590000Y-22612240D01*
X82706525Y-22786632D01*
X82913368Y-22993475D01*
X83156589Y-23155990D01*
X83426842Y-23267932D01*
X83713740Y-23325000D01*
X84006260Y-23325000D01*
X84293158Y-23267932D01*
X84563411Y-23155990D01*
X84806632Y-22993475D01*
X85013475Y-22786632D01*
X85130000Y-22612240D01*
X85246525Y-22786632D01*
X85453368Y-22993475D01*
X85696589Y-23155990D01*
X85966842Y-23267932D01*
X86253740Y-23325000D01*
X86546260Y-23325000D01*
X86833158Y-23267932D01*
X87103411Y-23155990D01*
X87346632Y-22993475D01*
X87553475Y-22786632D01*
X87670000Y-22612240D01*
X87786525Y-22786632D01*
X87993368Y-22993475D01*
X88236589Y-23155990D01*
X88506842Y-23267932D01*
X88793740Y-23325000D01*
X89086260Y-23325000D01*
X89373158Y-23267932D01*
X89643411Y-23155990D01*
X89886632Y-22993475D01*
X90093475Y-22786632D01*
X90215195Y-22604466D01*
X90284822Y-22721355D01*
X90479731Y-22937588D01*
X90713080Y-23111641D01*
X90975901Y-23236825D01*
X91123110Y-23281476D01*
X91353000Y-23160155D01*
X91353000Y-21967000D01*
X91333000Y-21967000D01*
X91333000Y-21713000D01*
X91353000Y-21713000D01*
X91353000Y-20519845D01*
X91607000Y-20519845D01*
X91607000Y-21713000D01*
X91627000Y-21713000D01*
X91627000Y-21967000D01*
X91607000Y-21967000D01*
X91607000Y-23160155D01*
X91836890Y-23281476D01*
X91984099Y-23236825D01*
X92246920Y-23111641D01*
X92480269Y-22937588D01*
X92675178Y-22721355D01*
X92744805Y-22604466D01*
X92866525Y-22786632D01*
X93073368Y-22993475D01*
X93316589Y-23155990D01*
X93586842Y-23267932D01*
X93873740Y-23325000D01*
X94166260Y-23325000D01*
X94453158Y-23267932D01*
X94723411Y-23155990D01*
X94966632Y-22993475D01*
X95173475Y-22786632D01*
X95290000Y-22612240D01*
X95406525Y-22786632D01*
X95613368Y-22993475D01*
X95856589Y-23155990D01*
X96126842Y-23267932D01*
X96413740Y-23325000D01*
X96706260Y-23325000D01*
X96993158Y-23267932D01*
X97263411Y-23155990D01*
X97506632Y-22993475D01*
X97713475Y-22786632D01*
X97875990Y-22543411D01*
X97987932Y-22273158D01*
X98045000Y-21986260D01*
X98045000Y-21693740D01*
X97987932Y-21406842D01*
X97875990Y-21136589D01*
X97713475Y-20893368D01*
X97506632Y-20686525D01*
X97263411Y-20524010D01*
X96993158Y-20412068D01*
X96706260Y-20355000D01*
X96413740Y-20355000D01*
X96126842Y-20412068D01*
X95856589Y-20524010D01*
X95613368Y-20686525D01*
X95406525Y-20893368D01*
X95290000Y-21067760D01*
X95173475Y-20893368D01*
X94966632Y-20686525D01*
X94723411Y-20524010D01*
X94453158Y-20412068D01*
X94166260Y-20355000D01*
X93873740Y-20355000D01*
X93586842Y-20412068D01*
X93316589Y-20524010D01*
X93073368Y-20686525D01*
X92866525Y-20893368D01*
X92744805Y-21075534D01*
X92675178Y-20958645D01*
X92480269Y-20742412D01*
X92246920Y-20568359D01*
X91984099Y-20443175D01*
X91836890Y-20398524D01*
X91607000Y-20519845D01*
X91353000Y-20519845D01*
X91123110Y-20398524D01*
X90975901Y-20443175D01*
X90713080Y-20568359D01*
X90479731Y-20742412D01*
X90284822Y-20958645D01*
X90215195Y-21075534D01*
X90093475Y-20893368D01*
X89886632Y-20686525D01*
X89643411Y-20524010D01*
X89373158Y-20412068D01*
X89086260Y-20355000D01*
X88793740Y-20355000D01*
X88506842Y-20412068D01*
X88236589Y-20524010D01*
X87993368Y-20686525D01*
X87786525Y-20893368D01*
X87670000Y-21067760D01*
X87553475Y-20893368D01*
X87346632Y-20686525D01*
X87103411Y-20524010D01*
X86833158Y-20412068D01*
X86546260Y-20355000D01*
X86253740Y-20355000D01*
X85966842Y-20412068D01*
X85696589Y-20524010D01*
X85453368Y-20686525D01*
X85246525Y-20893368D01*
X85130000Y-21067760D01*
X85013475Y-20893368D01*
X84806632Y-20686525D01*
X84563411Y-20524010D01*
X84293158Y-20412068D01*
X84006260Y-20355000D01*
X83713740Y-20355000D01*
X83426842Y-20412068D01*
X83156589Y-20524010D01*
X82913368Y-20686525D01*
X82706525Y-20893368D01*
X82590000Y-21067760D01*
X82473475Y-20893368D01*
X82266632Y-20686525D01*
X82023411Y-20524010D01*
X81753158Y-20412068D01*
X81466260Y-20355000D01*
X81173740Y-20355000D01*
X80886842Y-20412068D01*
X80616589Y-20524010D01*
X80373368Y-20686525D01*
X80241513Y-20818380D01*
X80219502Y-20745820D01*
X80160537Y-20635506D01*
X80081185Y-20538815D01*
X79984494Y-20459463D01*
X79874180Y-20400498D01*
X79754482Y-20364188D01*
X79630000Y-20351928D01*
X77930000Y-20351928D01*
X77805518Y-20364188D01*
X77685820Y-20400498D01*
X77575506Y-20459463D01*
X77478815Y-20538815D01*
X77399463Y-20635506D01*
X77340498Y-20745820D01*
X77304188Y-20865518D01*
X77291928Y-20990000D01*
X75127000Y-20990000D01*
X75127000Y-20127000D01*
X101903341Y-20127000D01*
X101811859Y-20164893D01*
G37*
%TD.AperFunction*%
%TD*%
M02*
