%TF.GenerationSoftware,KiCad,Pcbnew,5.1.9*%
%TF.CreationDate,2021-02-06T22:45:37+01:00*%
%TF.ProjectId,linear_encoder,6c696e65-6172-45f6-956e-636f6465722e,0*%
%TF.SameCoordinates,Original*%
%TF.FileFunction,Copper,L1,Top*%
%TF.FilePolarity,Positive*%
%FSLAX46Y46*%
G04 Gerber Fmt 4.6, Leading zero omitted, Abs format (unit mm)*
G04 Created by KiCad (PCBNEW 5.1.9) date 2021-02-06 22:45:37*
%MOMM*%
%LPD*%
G01*
G04 APERTURE LIST*
%TA.AperFunction,Profile*%
%ADD10C,0.100000*%
%TD*%
%TA.AperFunction,ComponentPad*%
%ADD11O,1.700000X1.700000*%
%TD*%
%TA.AperFunction,ComponentPad*%
%ADD12R,1.700000X1.700000*%
%TD*%
%TA.AperFunction,ComponentPad*%
%ADD13C,4.000000*%
%TD*%
%TA.AperFunction,ComponentPad*%
%ADD14C,1.600000*%
%TD*%
%TA.AperFunction,ComponentPad*%
%ADD15R,1.600000X1.600000*%
%TD*%
%TA.AperFunction,ComponentPad*%
%ADD16O,1.600000X1.600000*%
%TD*%
%TA.AperFunction,ViaPad*%
%ADD17C,0.800000*%
%TD*%
%TA.AperFunction,Conductor*%
%ADD18C,0.400000*%
%TD*%
%TA.AperFunction,Conductor*%
%ADD19C,0.500000*%
%TD*%
%TA.AperFunction,Conductor*%
%ADD20C,0.254000*%
%TD*%
%TA.AperFunction,Conductor*%
%ADD21C,0.150000*%
%TD*%
G04 APERTURE END LIST*
D10*
X109000000Y-19000000D02*
X109000000Y-52000000D01*
X74000000Y-19000000D02*
X109000000Y-19000000D01*
X74000000Y-52000000D02*
X74000000Y-19000000D01*
X109000000Y-52000000D02*
X74000000Y-52000000D01*
%TO.P,C2,2*%
%TO.N,GND*%
%TA.AperFunction,SMDPad,CuDef*%
G36*
G01*
X97450000Y-30975000D02*
X97450000Y-30025000D01*
G75*
G02*
X97700000Y-29775000I250000J0D01*
G01*
X98200000Y-29775000D01*
G75*
G02*
X98450000Y-30025000I0J-250000D01*
G01*
X98450000Y-30975000D01*
G75*
G02*
X98200000Y-31225000I-250000J0D01*
G01*
X97700000Y-31225000D01*
G75*
G02*
X97450000Y-30975000I0J250000D01*
G01*
G37*
%TD.AperFunction*%
%TO.P,C2,1*%
%TO.N,+5V*%
%TA.AperFunction,SMDPad,CuDef*%
G36*
G01*
X95550000Y-30975000D02*
X95550000Y-30025000D01*
G75*
G02*
X95800000Y-29775000I250000J0D01*
G01*
X96300000Y-29775000D01*
G75*
G02*
X96550000Y-30025000I0J-250000D01*
G01*
X96550000Y-30975000D01*
G75*
G02*
X96300000Y-31225000I-250000J0D01*
G01*
X95800000Y-31225000D01*
G75*
G02*
X95550000Y-30975000I0J250000D01*
G01*
G37*
%TD.AperFunction*%
%TD*%
%TO.P,C1,2*%
%TO.N,GND*%
%TA.AperFunction,SMDPad,CuDef*%
G36*
G01*
X87050000Y-30025000D02*
X87050000Y-30975000D01*
G75*
G02*
X86800000Y-31225000I-250000J0D01*
G01*
X86300000Y-31225000D01*
G75*
G02*
X86050000Y-30975000I0J250000D01*
G01*
X86050000Y-30025000D01*
G75*
G02*
X86300000Y-29775000I250000J0D01*
G01*
X86800000Y-29775000D01*
G75*
G02*
X87050000Y-30025000I0J-250000D01*
G01*
G37*
%TD.AperFunction*%
%TO.P,C1,1*%
%TO.N,+3V3*%
%TA.AperFunction,SMDPad,CuDef*%
G36*
G01*
X88950000Y-30025000D02*
X88950000Y-30975000D01*
G75*
G02*
X88700000Y-31225000I-250000J0D01*
G01*
X88200000Y-31225000D01*
G75*
G02*
X87950000Y-30975000I0J250000D01*
G01*
X87950000Y-30025000D01*
G75*
G02*
X88200000Y-29775000I250000J0D01*
G01*
X88700000Y-29775000D01*
G75*
G02*
X88950000Y-30025000I0J-250000D01*
G01*
G37*
%TD.AperFunction*%
%TD*%
%TO.P,U1,14*%
%TO.N,+5V*%
%TA.AperFunction,SMDPad,CuDef*%
G36*
G01*
X93605000Y-32690000D02*
X93605000Y-32490000D01*
G75*
G02*
X93705000Y-32390000I100000J0D01*
G01*
X94980000Y-32390000D01*
G75*
G02*
X95080000Y-32490000I0J-100000D01*
G01*
X95080000Y-32690000D01*
G75*
G02*
X94980000Y-32790000I-100000J0D01*
G01*
X93705000Y-32790000D01*
G75*
G02*
X93605000Y-32690000I0J100000D01*
G01*
G37*
%TD.AperFunction*%
%TO.P,U1,13*%
%TO.N,/A*%
%TA.AperFunction,SMDPad,CuDef*%
G36*
G01*
X93605000Y-33340000D02*
X93605000Y-33140000D01*
G75*
G02*
X93705000Y-33040000I100000J0D01*
G01*
X94980000Y-33040000D01*
G75*
G02*
X95080000Y-33140000I0J-100000D01*
G01*
X95080000Y-33340000D01*
G75*
G02*
X94980000Y-33440000I-100000J0D01*
G01*
X93705000Y-33440000D01*
G75*
G02*
X93605000Y-33340000I0J100000D01*
G01*
G37*
%TD.AperFunction*%
%TO.P,U1,12*%
%TO.N,/B*%
%TA.AperFunction,SMDPad,CuDef*%
G36*
G01*
X93605000Y-33990000D02*
X93605000Y-33790000D01*
G75*
G02*
X93705000Y-33690000I100000J0D01*
G01*
X94980000Y-33690000D01*
G75*
G02*
X95080000Y-33790000I0J-100000D01*
G01*
X95080000Y-33990000D01*
G75*
G02*
X94980000Y-34090000I-100000J0D01*
G01*
X93705000Y-34090000D01*
G75*
G02*
X93605000Y-33990000I0J100000D01*
G01*
G37*
%TD.AperFunction*%
%TO.P,U1,11*%
%TO.N,/Z*%
%TA.AperFunction,SMDPad,CuDef*%
G36*
G01*
X93605000Y-34640000D02*
X93605000Y-34440000D01*
G75*
G02*
X93705000Y-34340000I100000J0D01*
G01*
X94980000Y-34340000D01*
G75*
G02*
X95080000Y-34440000I0J-100000D01*
G01*
X95080000Y-34640000D01*
G75*
G02*
X94980000Y-34740000I-100000J0D01*
G01*
X93705000Y-34740000D01*
G75*
G02*
X93605000Y-34640000I0J100000D01*
G01*
G37*
%TD.AperFunction*%
%TO.P,U1,10*%
%TO.N,/IO5V*%
%TA.AperFunction,SMDPad,CuDef*%
G36*
G01*
X93605000Y-35290000D02*
X93605000Y-35090000D01*
G75*
G02*
X93705000Y-34990000I100000J0D01*
G01*
X94980000Y-34990000D01*
G75*
G02*
X95080000Y-35090000I0J-100000D01*
G01*
X95080000Y-35290000D01*
G75*
G02*
X94980000Y-35390000I-100000J0D01*
G01*
X93705000Y-35390000D01*
G75*
G02*
X93605000Y-35290000I0J100000D01*
G01*
G37*
%TD.AperFunction*%
%TO.P,U1,9*%
%TO.N,Net-(U1-Pad9)*%
%TA.AperFunction,SMDPad,CuDef*%
G36*
G01*
X93605000Y-35940000D02*
X93605000Y-35740000D01*
G75*
G02*
X93705000Y-35640000I100000J0D01*
G01*
X94980000Y-35640000D01*
G75*
G02*
X95080000Y-35740000I0J-100000D01*
G01*
X95080000Y-35940000D01*
G75*
G02*
X94980000Y-36040000I-100000J0D01*
G01*
X93705000Y-36040000D01*
G75*
G02*
X93605000Y-35940000I0J100000D01*
G01*
G37*
%TD.AperFunction*%
%TO.P,U1,8*%
%TO.N,Net-(R2-Pad2)*%
%TA.AperFunction,SMDPad,CuDef*%
G36*
G01*
X93605000Y-36590000D02*
X93605000Y-36390000D01*
G75*
G02*
X93705000Y-36290000I100000J0D01*
G01*
X94980000Y-36290000D01*
G75*
G02*
X95080000Y-36390000I0J-100000D01*
G01*
X95080000Y-36590000D01*
G75*
G02*
X94980000Y-36690000I-100000J0D01*
G01*
X93705000Y-36690000D01*
G75*
G02*
X93605000Y-36590000I0J100000D01*
G01*
G37*
%TD.AperFunction*%
%TO.P,U1,7*%
%TO.N,GND*%
%TA.AperFunction,SMDPad,CuDef*%
G36*
G01*
X87880000Y-36590000D02*
X87880000Y-36390000D01*
G75*
G02*
X87980000Y-36290000I100000J0D01*
G01*
X89255000Y-36290000D01*
G75*
G02*
X89355000Y-36390000I0J-100000D01*
G01*
X89355000Y-36590000D01*
G75*
G02*
X89255000Y-36690000I-100000J0D01*
G01*
X87980000Y-36690000D01*
G75*
G02*
X87880000Y-36590000I0J100000D01*
G01*
G37*
%TD.AperFunction*%
%TO.P,U1,6*%
%TO.N,Net-(U1-Pad6)*%
%TA.AperFunction,SMDPad,CuDef*%
G36*
G01*
X87880000Y-35940000D02*
X87880000Y-35740000D01*
G75*
G02*
X87980000Y-35640000I100000J0D01*
G01*
X89255000Y-35640000D01*
G75*
G02*
X89355000Y-35740000I0J-100000D01*
G01*
X89355000Y-35940000D01*
G75*
G02*
X89255000Y-36040000I-100000J0D01*
G01*
X87980000Y-36040000D01*
G75*
G02*
X87880000Y-35940000I0J100000D01*
G01*
G37*
%TD.AperFunction*%
%TO.P,U1,5*%
%TO.N,Net-(JPMOD1-Pad5)*%
%TA.AperFunction,SMDPad,CuDef*%
G36*
G01*
X87880000Y-35290000D02*
X87880000Y-35090000D01*
G75*
G02*
X87980000Y-34990000I100000J0D01*
G01*
X89255000Y-34990000D01*
G75*
G02*
X89355000Y-35090000I0J-100000D01*
G01*
X89355000Y-35290000D01*
G75*
G02*
X89255000Y-35390000I-100000J0D01*
G01*
X87980000Y-35390000D01*
G75*
G02*
X87880000Y-35290000I0J100000D01*
G01*
G37*
%TD.AperFunction*%
%TO.P,U1,4*%
%TO.N,/ZL*%
%TA.AperFunction,SMDPad,CuDef*%
G36*
G01*
X87880000Y-34640000D02*
X87880000Y-34440000D01*
G75*
G02*
X87980000Y-34340000I100000J0D01*
G01*
X89255000Y-34340000D01*
G75*
G02*
X89355000Y-34440000I0J-100000D01*
G01*
X89355000Y-34640000D01*
G75*
G02*
X89255000Y-34740000I-100000J0D01*
G01*
X87980000Y-34740000D01*
G75*
G02*
X87880000Y-34640000I0J100000D01*
G01*
G37*
%TD.AperFunction*%
%TO.P,U1,3*%
%TO.N,/BL*%
%TA.AperFunction,SMDPad,CuDef*%
G36*
G01*
X87880000Y-33990000D02*
X87880000Y-33790000D01*
G75*
G02*
X87980000Y-33690000I100000J0D01*
G01*
X89255000Y-33690000D01*
G75*
G02*
X89355000Y-33790000I0J-100000D01*
G01*
X89355000Y-33990000D01*
G75*
G02*
X89255000Y-34090000I-100000J0D01*
G01*
X87980000Y-34090000D01*
G75*
G02*
X87880000Y-33990000I0J100000D01*
G01*
G37*
%TD.AperFunction*%
%TO.P,U1,2*%
%TO.N,/AL*%
%TA.AperFunction,SMDPad,CuDef*%
G36*
G01*
X87880000Y-33340000D02*
X87880000Y-33140000D01*
G75*
G02*
X87980000Y-33040000I100000J0D01*
G01*
X89255000Y-33040000D01*
G75*
G02*
X89355000Y-33140000I0J-100000D01*
G01*
X89355000Y-33340000D01*
G75*
G02*
X89255000Y-33440000I-100000J0D01*
G01*
X87980000Y-33440000D01*
G75*
G02*
X87880000Y-33340000I0J100000D01*
G01*
G37*
%TD.AperFunction*%
%TO.P,U1,1*%
%TO.N,+3V3*%
%TA.AperFunction,SMDPad,CuDef*%
G36*
G01*
X87880000Y-32690000D02*
X87880000Y-32490000D01*
G75*
G02*
X87980000Y-32390000I100000J0D01*
G01*
X89255000Y-32390000D01*
G75*
G02*
X89355000Y-32490000I0J-100000D01*
G01*
X89355000Y-32690000D01*
G75*
G02*
X89255000Y-32790000I-100000J0D01*
G01*
X87980000Y-32790000D01*
G75*
G02*
X87880000Y-32690000I0J100000D01*
G01*
G37*
%TD.AperFunction*%
%TD*%
%TO.P,R2,2*%
%TO.N,Net-(R2-Pad2)*%
%TA.AperFunction,SMDPad,CuDef*%
G36*
G01*
X93400000Y-39450001D02*
X93400000Y-38549999D01*
G75*
G02*
X93649999Y-38300000I249999J0D01*
G01*
X94175001Y-38300000D01*
G75*
G02*
X94425000Y-38549999I0J-249999D01*
G01*
X94425000Y-39450001D01*
G75*
G02*
X94175001Y-39700000I-249999J0D01*
G01*
X93649999Y-39700000D01*
G75*
G02*
X93400000Y-39450001I0J249999D01*
G01*
G37*
%TD.AperFunction*%
%TO.P,R2,1*%
%TO.N,+3V3*%
%TA.AperFunction,SMDPad,CuDef*%
G36*
G01*
X91575000Y-39450001D02*
X91575000Y-38549999D01*
G75*
G02*
X91824999Y-38300000I249999J0D01*
G01*
X92350001Y-38300000D01*
G75*
G02*
X92600000Y-38549999I0J-249999D01*
G01*
X92600000Y-39450001D01*
G75*
G02*
X92350001Y-39700000I-249999J0D01*
G01*
X91824999Y-39700000D01*
G75*
G02*
X91575000Y-39450001I0J249999D01*
G01*
G37*
%TD.AperFunction*%
%TD*%
%TO.P,R1,2*%
%TO.N,+3V3*%
%TA.AperFunction,SMDPad,CuDef*%
G36*
G01*
X84800000Y-33050001D02*
X84800000Y-32149999D01*
G75*
G02*
X85049999Y-31900000I249999J0D01*
G01*
X85575001Y-31900000D01*
G75*
G02*
X85825000Y-32149999I0J-249999D01*
G01*
X85825000Y-33050001D01*
G75*
G02*
X85575001Y-33300000I-249999J0D01*
G01*
X85049999Y-33300000D01*
G75*
G02*
X84800000Y-33050001I0J249999D01*
G01*
G37*
%TD.AperFunction*%
%TO.P,R1,1*%
%TO.N,Net-(D1-Pad2)*%
%TA.AperFunction,SMDPad,CuDef*%
G36*
G01*
X82975000Y-33050001D02*
X82975000Y-32149999D01*
G75*
G02*
X83224999Y-31900000I249999J0D01*
G01*
X83750001Y-31900000D01*
G75*
G02*
X84000000Y-32149999I0J-249999D01*
G01*
X84000000Y-33050001D01*
G75*
G02*
X83750001Y-33300000I-249999J0D01*
G01*
X83224999Y-33300000D01*
G75*
G02*
X82975000Y-33050001I0J249999D01*
G01*
G37*
%TD.AperFunction*%
%TD*%
D11*
%TO.P,JPMOD1,12*%
%TO.N,Net-(D1-Pad2)*%
X77510000Y-35810000D03*
%TO.P,JPMOD1,11*%
%TO.N,/AL*%
X80050000Y-35810000D03*
%TO.P,JPMOD1,10*%
%TO.N,/IO2*%
X77510000Y-38350000D03*
%TO.P,JPMOD1,9*%
%TO.N,/BL*%
X80050000Y-38350000D03*
%TO.P,JPMOD1,8*%
%TO.N,/IO1*%
X77510000Y-40890000D03*
%TO.P,JPMOD1,7*%
%TO.N,/ZL*%
X80050000Y-40890000D03*
%TO.P,JPMOD1,6*%
%TO.N,/IO0*%
X77510000Y-43430000D03*
%TO.P,JPMOD1,5*%
%TO.N,Net-(JPMOD1-Pad5)*%
X80050000Y-43430000D03*
%TO.P,JPMOD1,4*%
%TO.N,GND*%
X77510000Y-45970000D03*
%TO.P,JPMOD1,3*%
X80050000Y-45970000D03*
%TO.P,JPMOD1,2*%
%TO.N,+3V3*%
X77510000Y-48510000D03*
D12*
%TO.P,JPMOD1,1*%
X80050000Y-48510000D03*
%TD*%
D13*
%TO.P,JDB9,0*%
%TO.N,N/C*%
X103060000Y-22500000D03*
X103060000Y-47500000D03*
D14*
%TO.P,JDB9,9*%
%TO.N,/Z*%
X104480000Y-39155000D03*
%TO.P,JDB9,8*%
%TO.N,/B*%
X104480000Y-36385000D03*
%TO.P,JDB9,7*%
%TO.N,+5V*%
X104480000Y-33615000D03*
%TO.P,JDB9,6*%
%TO.N,/A*%
X104480000Y-30845000D03*
%TO.P,JDB9,5*%
%TO.N,Net-(JDB9-Pad5)*%
X101640000Y-40540000D03*
%TO.P,JDB9,4*%
%TO.N,Net-(JDB9-Pad4)*%
X101640000Y-37770000D03*
%TO.P,JDB9,3*%
%TO.N,Net-(JDB9-Pad3)*%
X101640000Y-35000000D03*
%TO.P,JDB9,2*%
%TO.N,GND*%
X101640000Y-32230000D03*
D15*
%TO.P,JDB9,1*%
%TO.N,Net-(JDB9-Pad1)*%
X101640000Y-29460000D03*
%TD*%
D11*
%TO.P,J1,8*%
%TO.N,+5V*%
X96560000Y-21840000D03*
%TO.P,J1,7*%
%TO.N,+3V3*%
X94020000Y-21840000D03*
%TO.P,J1,6*%
%TO.N,GND*%
X91480000Y-21840000D03*
%TO.P,J1,5*%
%TO.N,/PROBE_IN*%
X88940000Y-21840000D03*
%TO.P,J1,4*%
%TO.N,/IO5V*%
X86400000Y-21840000D03*
%TO.P,J1,3*%
%TO.N,/IO2*%
X83860000Y-21840000D03*
%TO.P,J1,2*%
%TO.N,/IO1*%
X81320000Y-21840000D03*
D12*
%TO.P,J1,1*%
%TO.N,/IO0*%
X78780000Y-21840000D03*
%TD*%
D16*
%TO.P,D1,2*%
%TO.N,Net-(D1-Pad2)*%
X81380000Y-27000000D03*
D15*
%TO.P,D1,1*%
%TO.N,/PROBE_IN*%
X89000000Y-27000000D03*
%TD*%
D17*
%TO.N,GND*%
X85000000Y-30500000D03*
%TD*%
D18*
%TO.N,Net-(D1-Pad2)*%
X83380000Y-32492500D02*
X83487500Y-32600000D01*
X80720000Y-32600000D02*
X77510000Y-35810000D01*
X83487500Y-32600000D02*
X80720000Y-32600000D01*
X81380000Y-31940000D02*
X80720000Y-32600000D01*
X81380000Y-27000000D02*
X81380000Y-31940000D01*
%TO.N,/PROBE_IN*%
X88940000Y-26940000D02*
X89000000Y-27000000D01*
X88940000Y-21840000D02*
X88940000Y-26940000D01*
%TO.N,+5V*%
X94342500Y-32207500D02*
X96050000Y-30500000D01*
X94342500Y-32590000D02*
X94342500Y-32207500D01*
%TO.N,+3V3*%
X88617500Y-32590000D02*
X89412124Y-32590000D01*
X85322500Y-32590000D02*
X85312500Y-32600000D01*
X88617500Y-32590000D02*
X85322500Y-32590000D01*
X77510000Y-48510000D02*
X80050000Y-48510000D01*
X89412124Y-32590000D02*
X92604979Y-29397145D01*
X92604979Y-29397145D02*
X92604979Y-23255021D01*
X92604979Y-23255021D02*
X94020000Y-21840000D01*
X88617500Y-32590000D02*
X91590000Y-32590000D01*
X92087500Y-33087500D02*
X92087500Y-39000000D01*
X91590000Y-32590000D02*
X92087500Y-33087500D01*
D19*
X88450000Y-30500000D02*
X88450000Y-31550000D01*
X87400000Y-32600000D02*
X85312500Y-32600000D01*
X88450000Y-31550000D02*
X87400000Y-32600000D01*
D18*
%TO.N,GND*%
X88617500Y-36490000D02*
X87510000Y-36490000D01*
X87510000Y-36490000D02*
X82400000Y-41600000D01*
X82400000Y-43620000D02*
X80050000Y-45970000D01*
X82400000Y-41600000D02*
X82400000Y-43620000D01*
X80050000Y-45970000D02*
X77510000Y-45970000D01*
D19*
X86550000Y-30500000D02*
X85000000Y-30500000D01*
X99910000Y-30500000D02*
X101640000Y-32230000D01*
X97950000Y-30500000D02*
X99910000Y-30500000D01*
D18*
%TO.N,/IO5V*%
X93204990Y-34847114D02*
X93204990Y-24795010D01*
X93497886Y-35140010D02*
X93204990Y-34847114D01*
X94342500Y-35140010D02*
X93497886Y-35140010D01*
X95309999Y-22690001D02*
X95309999Y-20309999D01*
X93204990Y-24795010D02*
X95309999Y-22690001D01*
X87930001Y-20309999D02*
X86400000Y-21840000D01*
X95309999Y-20309999D02*
X87930001Y-20309999D01*
%TO.N,/IO2*%
X83860000Y-21840000D02*
X81700000Y-24000000D01*
X81700000Y-24000000D02*
X78000000Y-24000000D01*
X78000000Y-24000000D02*
X76000000Y-26000000D01*
X76000000Y-36840000D02*
X77510000Y-38350000D01*
X76000000Y-26000000D02*
X76000000Y-36840000D01*
%TO.N,/IO1*%
X79760011Y-23399989D02*
X81320000Y-21840000D01*
X77510000Y-40890000D02*
X75399989Y-38779989D01*
X75399989Y-38779989D02*
X75399989Y-25751468D01*
X75399989Y-25751468D02*
X77751468Y-23399989D01*
X77751468Y-23399989D02*
X79760011Y-23399989D01*
%TO.N,/IO0*%
X78780000Y-21840000D02*
X77530000Y-21840000D01*
X77530000Y-21840000D02*
X74799978Y-24570022D01*
X74799978Y-24570022D02*
X74799978Y-40719978D01*
X74799978Y-40719978D02*
X77510000Y-43430000D01*
%TO.N,/Z*%
X104480000Y-39155000D02*
X104480000Y-40102196D01*
X99400000Y-40076002D02*
X99400000Y-38551457D01*
X99400000Y-38551457D02*
X95388543Y-34540000D01*
X104480000Y-40102196D02*
X102842195Y-41740001D01*
X102842195Y-41740001D02*
X101063999Y-41740001D01*
X101063999Y-41740001D02*
X99400000Y-40076002D01*
X95388543Y-34540000D02*
X94342500Y-34540000D01*
%TO.N,/B*%
X95587086Y-33890000D02*
X94342500Y-33890000D01*
X104480000Y-36706002D02*
X102216001Y-38970001D01*
X100667087Y-38970001D02*
X95587086Y-33890000D01*
X102216001Y-38970001D02*
X100667087Y-38970001D01*
X104480000Y-36385000D02*
X104480000Y-36706002D01*
%TO.N,/A*%
X95785629Y-33240000D02*
X94342500Y-33240000D01*
X105680001Y-34519999D02*
X105015001Y-35184999D01*
X98745630Y-36200001D02*
X95785629Y-33240000D01*
X102216001Y-36200001D02*
X98745630Y-36200001D01*
X103231003Y-35184999D02*
X102216001Y-36200001D01*
X104480000Y-30845000D02*
X105680001Y-32045001D01*
X105015001Y-35184999D02*
X103231003Y-35184999D01*
X105680001Y-32045001D02*
X105680001Y-34519999D01*
%TO.N,/ZL*%
X88617500Y-34540000D02*
X87624334Y-34540000D01*
X87624334Y-34540000D02*
X81274334Y-40890000D01*
X81274334Y-40890000D02*
X80050000Y-40890000D01*
%TO.N,/BL*%
X87425791Y-33890000D02*
X82965791Y-38350000D01*
X88617500Y-33890000D02*
X87425791Y-33890000D01*
X82965791Y-38350000D02*
X80050000Y-38350000D01*
%TO.N,/AL*%
X88617500Y-33240000D02*
X88607489Y-33250011D01*
X88607489Y-33250011D02*
X86294245Y-33250011D01*
X83734256Y-35810000D02*
X80050000Y-35810000D01*
X86294245Y-33250011D02*
X83734256Y-35810000D01*
%TO.N,Net-(R2-Pad2)*%
X94342500Y-36490000D02*
X95490000Y-36490000D01*
X95490000Y-36490000D02*
X96000000Y-37000000D01*
X96000000Y-37000000D02*
X96000000Y-39000000D01*
X96000000Y-39000000D02*
X93912500Y-39000000D01*
%TO.N,Net-(JPMOD1-Pad5)*%
X80050000Y-42962876D02*
X80050000Y-43430000D01*
X88617500Y-35190000D02*
X87822876Y-35190000D01*
X87822876Y-35190000D02*
X80050000Y-42962876D01*
%TD*%
D20*
%TO.N,+3V3*%
X92824822Y-22721355D02*
X93019731Y-22937588D01*
X93253080Y-23111641D01*
X93515901Y-23236825D01*
X93566853Y-23252280D01*
X92643564Y-24175569D01*
X92611700Y-24201719D01*
X92585552Y-24233581D01*
X92507354Y-24328865D01*
X92429818Y-24473924D01*
X92382072Y-24631322D01*
X92365950Y-24795010D01*
X92369991Y-24836039D01*
X92369990Y-34806095D01*
X92365950Y-34847114D01*
X92369990Y-34888132D01*
X92382072Y-35010802D01*
X92429818Y-35168200D01*
X92507354Y-35313259D01*
X92611699Y-35440405D01*
X92643569Y-35466560D01*
X92878440Y-35701431D01*
X92904595Y-35733301D01*
X92966928Y-35784456D01*
X92966928Y-35940000D01*
X92981110Y-36083991D01*
X93005684Y-36165000D01*
X92981110Y-36246009D01*
X92966928Y-36390000D01*
X92966928Y-36590000D01*
X92981110Y-36733991D01*
X93023110Y-36872448D01*
X93091316Y-37000051D01*
X93183104Y-37111896D01*
X93294949Y-37203684D01*
X93422552Y-37271890D01*
X93561009Y-37313890D01*
X93705000Y-37328072D01*
X93873000Y-37328072D01*
X93873000Y-37661928D01*
X93649999Y-37661928D01*
X93476745Y-37678992D01*
X93310149Y-37729528D01*
X93156613Y-37811595D01*
X93075363Y-37878276D01*
X93051185Y-37848815D01*
X92954494Y-37769463D01*
X92844180Y-37710498D01*
X92724482Y-37674188D01*
X92600000Y-37661928D01*
X92373250Y-37665000D01*
X92214500Y-37823750D01*
X92214500Y-38873000D01*
X92234500Y-38873000D01*
X92234500Y-39127000D01*
X92214500Y-39127000D01*
X92214500Y-40176250D01*
X92373250Y-40335000D01*
X92600000Y-40338072D01*
X92724482Y-40325812D01*
X92844180Y-40289502D01*
X92954494Y-40230537D01*
X93051185Y-40151185D01*
X93075363Y-40121724D01*
X93156613Y-40188405D01*
X93310149Y-40270472D01*
X93476745Y-40321008D01*
X93649999Y-40338072D01*
X93873000Y-40338072D01*
X93873000Y-50873000D01*
X75127000Y-50873000D01*
X75127000Y-48866890D01*
X76068524Y-48866890D01*
X76113175Y-49014099D01*
X76238359Y-49276920D01*
X76412412Y-49510269D01*
X76628645Y-49705178D01*
X76878748Y-49854157D01*
X77153109Y-49951481D01*
X77383000Y-49830814D01*
X77383000Y-48637000D01*
X77637000Y-48637000D01*
X77637000Y-49830814D01*
X77866891Y-49951481D01*
X78141252Y-49854157D01*
X78391355Y-49705178D01*
X78587502Y-49528374D01*
X78610498Y-49604180D01*
X78669463Y-49714494D01*
X78748815Y-49811185D01*
X78845506Y-49890537D01*
X78955820Y-49949502D01*
X79075518Y-49985812D01*
X79200000Y-49998072D01*
X79764250Y-49995000D01*
X79923000Y-49836250D01*
X79923000Y-48637000D01*
X80177000Y-48637000D01*
X80177000Y-49836250D01*
X80335750Y-49995000D01*
X80900000Y-49998072D01*
X81024482Y-49985812D01*
X81144180Y-49949502D01*
X81254494Y-49890537D01*
X81351185Y-49811185D01*
X81430537Y-49714494D01*
X81489502Y-49604180D01*
X81525812Y-49484482D01*
X81538072Y-49360000D01*
X81535000Y-48795750D01*
X81376250Y-48637000D01*
X80177000Y-48637000D01*
X79923000Y-48637000D01*
X77637000Y-48637000D01*
X77383000Y-48637000D01*
X76189845Y-48637000D01*
X76068524Y-48866890D01*
X75127000Y-48866890D01*
X75127000Y-42227867D01*
X76051193Y-43152061D01*
X76025000Y-43283740D01*
X76025000Y-43576260D01*
X76082068Y-43863158D01*
X76194010Y-44133411D01*
X76356525Y-44376632D01*
X76563368Y-44583475D01*
X76737760Y-44700000D01*
X76563368Y-44816525D01*
X76356525Y-45023368D01*
X76194010Y-45266589D01*
X76082068Y-45536842D01*
X76025000Y-45823740D01*
X76025000Y-46116260D01*
X76082068Y-46403158D01*
X76194010Y-46673411D01*
X76356525Y-46916632D01*
X76563368Y-47123475D01*
X76745534Y-47245195D01*
X76628645Y-47314822D01*
X76412412Y-47509731D01*
X76238359Y-47743080D01*
X76113175Y-48005901D01*
X76068524Y-48153110D01*
X76189845Y-48383000D01*
X77383000Y-48383000D01*
X77383000Y-48363000D01*
X77637000Y-48363000D01*
X77637000Y-48383000D01*
X79923000Y-48383000D01*
X79923000Y-48363000D01*
X80177000Y-48363000D01*
X80177000Y-48383000D01*
X81376250Y-48383000D01*
X81535000Y-48224250D01*
X81538072Y-47660000D01*
X81525812Y-47535518D01*
X81489502Y-47415820D01*
X81430537Y-47305506D01*
X81351185Y-47208815D01*
X81254494Y-47129463D01*
X81144180Y-47070498D01*
X81071620Y-47048487D01*
X81203475Y-46916632D01*
X81365990Y-46673411D01*
X81477932Y-46403158D01*
X81535000Y-46116260D01*
X81535000Y-45823740D01*
X81508807Y-45692061D01*
X82961432Y-44239437D01*
X82993291Y-44213291D01*
X83097636Y-44086146D01*
X83175172Y-43941087D01*
X83222918Y-43783689D01*
X83235000Y-43661019D01*
X83239040Y-43620000D01*
X83235000Y-43578982D01*
X83235000Y-41945867D01*
X85480867Y-39700000D01*
X90936928Y-39700000D01*
X90949188Y-39824482D01*
X90985498Y-39944180D01*
X91044463Y-40054494D01*
X91123815Y-40151185D01*
X91220506Y-40230537D01*
X91330820Y-40289502D01*
X91450518Y-40325812D01*
X91575000Y-40338072D01*
X91801750Y-40335000D01*
X91960500Y-40176250D01*
X91960500Y-39127000D01*
X91098750Y-39127000D01*
X90940000Y-39285750D01*
X90936928Y-39700000D01*
X85480867Y-39700000D01*
X86880867Y-38300000D01*
X90936928Y-38300000D01*
X90940000Y-38714250D01*
X91098750Y-38873000D01*
X91960500Y-38873000D01*
X91960500Y-37823750D01*
X91801750Y-37665000D01*
X91575000Y-37661928D01*
X91450518Y-37674188D01*
X91330820Y-37710498D01*
X91220506Y-37769463D01*
X91123815Y-37848815D01*
X91044463Y-37945506D01*
X90985498Y-38055820D01*
X90949188Y-38175518D01*
X90936928Y-38300000D01*
X86880867Y-38300000D01*
X87855868Y-37325000D01*
X87948810Y-37325000D01*
X87980000Y-37328072D01*
X89255000Y-37328072D01*
X89398991Y-37313890D01*
X89537448Y-37271890D01*
X89665051Y-37203684D01*
X89776896Y-37111896D01*
X89868684Y-37000051D01*
X89936890Y-36872448D01*
X89978890Y-36733991D01*
X89993072Y-36590000D01*
X89993072Y-36390000D01*
X89978890Y-36246009D01*
X89954316Y-36165000D01*
X89978890Y-36083991D01*
X89993072Y-35940000D01*
X89993072Y-35740000D01*
X89978890Y-35596009D01*
X89954316Y-35515000D01*
X89978890Y-35433991D01*
X89993072Y-35290000D01*
X89993072Y-35090000D01*
X89978890Y-34946009D01*
X89954316Y-34865000D01*
X89978890Y-34783991D01*
X89993072Y-34640000D01*
X89993072Y-34440000D01*
X89978890Y-34296009D01*
X89954316Y-34215000D01*
X89978890Y-34133991D01*
X89993072Y-33990000D01*
X89993072Y-33790000D01*
X89978890Y-33646009D01*
X89954316Y-33565000D01*
X89978890Y-33483991D01*
X89993072Y-33340000D01*
X89993072Y-33140000D01*
X89978890Y-32996009D01*
X89967650Y-32958955D01*
X89978868Y-32923883D01*
X89990000Y-32821750D01*
X89831250Y-32663000D01*
X89813741Y-32663000D01*
X89776896Y-32618104D01*
X89665051Y-32526316D01*
X89647622Y-32517000D01*
X89831250Y-32517000D01*
X89990000Y-32358250D01*
X89978868Y-32256117D01*
X89940761Y-32136979D01*
X89880144Y-32027564D01*
X89799346Y-31932078D01*
X89701471Y-31854189D01*
X89590282Y-31796891D01*
X89470052Y-31762386D01*
X89345400Y-31752000D01*
X89308499Y-31752250D01*
X89401185Y-31676185D01*
X89480537Y-31579494D01*
X89539502Y-31469180D01*
X89575812Y-31349482D01*
X89588072Y-31225000D01*
X89585000Y-30785750D01*
X89426250Y-30627000D01*
X88577000Y-30627000D01*
X88577000Y-31701250D01*
X88735750Y-31860000D01*
X88797367Y-31860883D01*
X88744500Y-31913750D01*
X88744500Y-32401928D01*
X88627328Y-32401928D01*
X88617500Y-32400960D01*
X88607672Y-32401928D01*
X88490500Y-32401928D01*
X88490500Y-31913750D01*
X88331750Y-31755000D01*
X88269671Y-31754579D01*
X88323000Y-31701250D01*
X88323000Y-30627000D01*
X88303000Y-30627000D01*
X88303000Y-30373000D01*
X88323000Y-30373000D01*
X88323000Y-29298750D01*
X88577000Y-29298750D01*
X88577000Y-30373000D01*
X89426250Y-30373000D01*
X89585000Y-30214250D01*
X89588072Y-29775000D01*
X89575812Y-29650518D01*
X89539502Y-29530820D01*
X89480537Y-29420506D01*
X89401185Y-29323815D01*
X89304494Y-29244463D01*
X89194180Y-29185498D01*
X89074482Y-29149188D01*
X88950000Y-29136928D01*
X88735750Y-29140000D01*
X88577000Y-29298750D01*
X88323000Y-29298750D01*
X88164250Y-29140000D01*
X87950000Y-29136928D01*
X87825518Y-29149188D01*
X87705820Y-29185498D01*
X87595506Y-29244463D01*
X87498815Y-29323815D01*
X87433342Y-29403594D01*
X87427962Y-29397038D01*
X87293386Y-29286595D01*
X87139850Y-29204528D01*
X86973254Y-29153992D01*
X86800000Y-29136928D01*
X86300000Y-29136928D01*
X86126746Y-29153992D01*
X85960150Y-29204528D01*
X85806614Y-29286595D01*
X85672038Y-29397038D01*
X85561595Y-29531614D01*
X85522664Y-29604449D01*
X85490256Y-29582795D01*
X85301898Y-29504774D01*
X85101939Y-29465000D01*
X84898061Y-29465000D01*
X84698102Y-29504774D01*
X84509744Y-29582795D01*
X84340226Y-29696063D01*
X84196063Y-29840226D01*
X84082795Y-30009744D01*
X84004774Y-30198102D01*
X83965000Y-30398061D01*
X83965000Y-30601939D01*
X84004774Y-30801898D01*
X84082795Y-30990256D01*
X84196063Y-31159774D01*
X84340226Y-31303937D01*
X84442269Y-31372120D01*
X84348815Y-31448815D01*
X84324637Y-31478276D01*
X84243387Y-31411595D01*
X84089851Y-31329528D01*
X83923255Y-31278992D01*
X83750001Y-31261928D01*
X83224999Y-31261928D01*
X83051745Y-31278992D01*
X82885149Y-31329528D01*
X82731613Y-31411595D01*
X82597038Y-31522038D01*
X82486595Y-31656613D01*
X82428661Y-31765000D01*
X82215000Y-31765000D01*
X82215000Y-28167930D01*
X82294759Y-28114637D01*
X82494637Y-27914759D01*
X82651680Y-27679727D01*
X82759853Y-27418574D01*
X82815000Y-27141335D01*
X82815000Y-26858665D01*
X82759853Y-26581426D01*
X82651680Y-26320273D01*
X82494637Y-26085241D01*
X82294759Y-25885363D01*
X82059727Y-25728320D01*
X81798574Y-25620147D01*
X81521335Y-25565000D01*
X81238665Y-25565000D01*
X80961426Y-25620147D01*
X80700273Y-25728320D01*
X80465241Y-25885363D01*
X80265363Y-26085241D01*
X80108320Y-26320273D01*
X80000147Y-26581426D01*
X79945000Y-26858665D01*
X79945000Y-27141335D01*
X80000147Y-27418574D01*
X80108320Y-27679727D01*
X80265363Y-27914759D01*
X80465241Y-28114637D01*
X80545000Y-28167930D01*
X80545001Y-31594131D01*
X80158578Y-31980555D01*
X80126709Y-32006709D01*
X80100563Y-32038568D01*
X77787940Y-34351193D01*
X77656260Y-34325000D01*
X77363740Y-34325000D01*
X77076842Y-34382068D01*
X76835000Y-34482242D01*
X76835000Y-26345867D01*
X78345868Y-24835000D01*
X81658982Y-24835000D01*
X81700000Y-24839040D01*
X81741018Y-24835000D01*
X81741019Y-24835000D01*
X81863689Y-24822918D01*
X82021087Y-24775172D01*
X82166146Y-24697636D01*
X82293291Y-24593291D01*
X82319446Y-24561421D01*
X83582060Y-23298807D01*
X83713740Y-23325000D01*
X84006260Y-23325000D01*
X84293158Y-23267932D01*
X84563411Y-23155990D01*
X84806632Y-22993475D01*
X85013475Y-22786632D01*
X85130000Y-22612240D01*
X85246525Y-22786632D01*
X85453368Y-22993475D01*
X85696589Y-23155990D01*
X85966842Y-23267932D01*
X86253740Y-23325000D01*
X86546260Y-23325000D01*
X86833158Y-23267932D01*
X87103411Y-23155990D01*
X87346632Y-22993475D01*
X87553475Y-22786632D01*
X87670000Y-22612240D01*
X87786525Y-22786632D01*
X87993368Y-22993475D01*
X88105000Y-23068065D01*
X88105001Y-25571284D01*
X88075518Y-25574188D01*
X87955820Y-25610498D01*
X87845506Y-25669463D01*
X87748815Y-25748815D01*
X87669463Y-25845506D01*
X87610498Y-25955820D01*
X87574188Y-26075518D01*
X87561928Y-26200000D01*
X87561928Y-27800000D01*
X87574188Y-27924482D01*
X87610498Y-28044180D01*
X87669463Y-28154494D01*
X87748815Y-28251185D01*
X87845506Y-28330537D01*
X87955820Y-28389502D01*
X88075518Y-28425812D01*
X88200000Y-28438072D01*
X89800000Y-28438072D01*
X89924482Y-28425812D01*
X90044180Y-28389502D01*
X90154494Y-28330537D01*
X90251185Y-28251185D01*
X90330537Y-28154494D01*
X90389502Y-28044180D01*
X90425812Y-27924482D01*
X90438072Y-27800000D01*
X90438072Y-26200000D01*
X90425812Y-26075518D01*
X90389502Y-25955820D01*
X90330537Y-25845506D01*
X90251185Y-25748815D01*
X90154494Y-25669463D01*
X90044180Y-25610498D01*
X89924482Y-25574188D01*
X89800000Y-25561928D01*
X89775000Y-25561928D01*
X89775000Y-23068065D01*
X89886632Y-22993475D01*
X90093475Y-22786632D01*
X90210000Y-22612240D01*
X90326525Y-22786632D01*
X90533368Y-22993475D01*
X90776589Y-23155990D01*
X91046842Y-23267932D01*
X91333740Y-23325000D01*
X91626260Y-23325000D01*
X91913158Y-23267932D01*
X92183411Y-23155990D01*
X92426632Y-22993475D01*
X92633475Y-22786632D01*
X92755195Y-22604466D01*
X92824822Y-22721355D01*
%TA.AperFunction,Conductor*%
D21*
G36*
X92824822Y-22721355D02*
G01*
X93019731Y-22937588D01*
X93253080Y-23111641D01*
X93515901Y-23236825D01*
X93566853Y-23252280D01*
X92643564Y-24175569D01*
X92611700Y-24201719D01*
X92585552Y-24233581D01*
X92507354Y-24328865D01*
X92429818Y-24473924D01*
X92382072Y-24631322D01*
X92365950Y-24795010D01*
X92369991Y-24836039D01*
X92369990Y-34806095D01*
X92365950Y-34847114D01*
X92369990Y-34888132D01*
X92382072Y-35010802D01*
X92429818Y-35168200D01*
X92507354Y-35313259D01*
X92611699Y-35440405D01*
X92643569Y-35466560D01*
X92878440Y-35701431D01*
X92904595Y-35733301D01*
X92966928Y-35784456D01*
X92966928Y-35940000D01*
X92981110Y-36083991D01*
X93005684Y-36165000D01*
X92981110Y-36246009D01*
X92966928Y-36390000D01*
X92966928Y-36590000D01*
X92981110Y-36733991D01*
X93023110Y-36872448D01*
X93091316Y-37000051D01*
X93183104Y-37111896D01*
X93294949Y-37203684D01*
X93422552Y-37271890D01*
X93561009Y-37313890D01*
X93705000Y-37328072D01*
X93873000Y-37328072D01*
X93873000Y-37661928D01*
X93649999Y-37661928D01*
X93476745Y-37678992D01*
X93310149Y-37729528D01*
X93156613Y-37811595D01*
X93075363Y-37878276D01*
X93051185Y-37848815D01*
X92954494Y-37769463D01*
X92844180Y-37710498D01*
X92724482Y-37674188D01*
X92600000Y-37661928D01*
X92373250Y-37665000D01*
X92214500Y-37823750D01*
X92214500Y-38873000D01*
X92234500Y-38873000D01*
X92234500Y-39127000D01*
X92214500Y-39127000D01*
X92214500Y-40176250D01*
X92373250Y-40335000D01*
X92600000Y-40338072D01*
X92724482Y-40325812D01*
X92844180Y-40289502D01*
X92954494Y-40230537D01*
X93051185Y-40151185D01*
X93075363Y-40121724D01*
X93156613Y-40188405D01*
X93310149Y-40270472D01*
X93476745Y-40321008D01*
X93649999Y-40338072D01*
X93873000Y-40338072D01*
X93873000Y-50873000D01*
X75127000Y-50873000D01*
X75127000Y-48866890D01*
X76068524Y-48866890D01*
X76113175Y-49014099D01*
X76238359Y-49276920D01*
X76412412Y-49510269D01*
X76628645Y-49705178D01*
X76878748Y-49854157D01*
X77153109Y-49951481D01*
X77383000Y-49830814D01*
X77383000Y-48637000D01*
X77637000Y-48637000D01*
X77637000Y-49830814D01*
X77866891Y-49951481D01*
X78141252Y-49854157D01*
X78391355Y-49705178D01*
X78587502Y-49528374D01*
X78610498Y-49604180D01*
X78669463Y-49714494D01*
X78748815Y-49811185D01*
X78845506Y-49890537D01*
X78955820Y-49949502D01*
X79075518Y-49985812D01*
X79200000Y-49998072D01*
X79764250Y-49995000D01*
X79923000Y-49836250D01*
X79923000Y-48637000D01*
X80177000Y-48637000D01*
X80177000Y-49836250D01*
X80335750Y-49995000D01*
X80900000Y-49998072D01*
X81024482Y-49985812D01*
X81144180Y-49949502D01*
X81254494Y-49890537D01*
X81351185Y-49811185D01*
X81430537Y-49714494D01*
X81489502Y-49604180D01*
X81525812Y-49484482D01*
X81538072Y-49360000D01*
X81535000Y-48795750D01*
X81376250Y-48637000D01*
X80177000Y-48637000D01*
X79923000Y-48637000D01*
X77637000Y-48637000D01*
X77383000Y-48637000D01*
X76189845Y-48637000D01*
X76068524Y-48866890D01*
X75127000Y-48866890D01*
X75127000Y-42227867D01*
X76051193Y-43152061D01*
X76025000Y-43283740D01*
X76025000Y-43576260D01*
X76082068Y-43863158D01*
X76194010Y-44133411D01*
X76356525Y-44376632D01*
X76563368Y-44583475D01*
X76737760Y-44700000D01*
X76563368Y-44816525D01*
X76356525Y-45023368D01*
X76194010Y-45266589D01*
X76082068Y-45536842D01*
X76025000Y-45823740D01*
X76025000Y-46116260D01*
X76082068Y-46403158D01*
X76194010Y-46673411D01*
X76356525Y-46916632D01*
X76563368Y-47123475D01*
X76745534Y-47245195D01*
X76628645Y-47314822D01*
X76412412Y-47509731D01*
X76238359Y-47743080D01*
X76113175Y-48005901D01*
X76068524Y-48153110D01*
X76189845Y-48383000D01*
X77383000Y-48383000D01*
X77383000Y-48363000D01*
X77637000Y-48363000D01*
X77637000Y-48383000D01*
X79923000Y-48383000D01*
X79923000Y-48363000D01*
X80177000Y-48363000D01*
X80177000Y-48383000D01*
X81376250Y-48383000D01*
X81535000Y-48224250D01*
X81538072Y-47660000D01*
X81525812Y-47535518D01*
X81489502Y-47415820D01*
X81430537Y-47305506D01*
X81351185Y-47208815D01*
X81254494Y-47129463D01*
X81144180Y-47070498D01*
X81071620Y-47048487D01*
X81203475Y-46916632D01*
X81365990Y-46673411D01*
X81477932Y-46403158D01*
X81535000Y-46116260D01*
X81535000Y-45823740D01*
X81508807Y-45692061D01*
X82961432Y-44239437D01*
X82993291Y-44213291D01*
X83097636Y-44086146D01*
X83175172Y-43941087D01*
X83222918Y-43783689D01*
X83235000Y-43661019D01*
X83239040Y-43620000D01*
X83235000Y-43578982D01*
X83235000Y-41945867D01*
X85480867Y-39700000D01*
X90936928Y-39700000D01*
X90949188Y-39824482D01*
X90985498Y-39944180D01*
X91044463Y-40054494D01*
X91123815Y-40151185D01*
X91220506Y-40230537D01*
X91330820Y-40289502D01*
X91450518Y-40325812D01*
X91575000Y-40338072D01*
X91801750Y-40335000D01*
X91960500Y-40176250D01*
X91960500Y-39127000D01*
X91098750Y-39127000D01*
X90940000Y-39285750D01*
X90936928Y-39700000D01*
X85480867Y-39700000D01*
X86880867Y-38300000D01*
X90936928Y-38300000D01*
X90940000Y-38714250D01*
X91098750Y-38873000D01*
X91960500Y-38873000D01*
X91960500Y-37823750D01*
X91801750Y-37665000D01*
X91575000Y-37661928D01*
X91450518Y-37674188D01*
X91330820Y-37710498D01*
X91220506Y-37769463D01*
X91123815Y-37848815D01*
X91044463Y-37945506D01*
X90985498Y-38055820D01*
X90949188Y-38175518D01*
X90936928Y-38300000D01*
X86880867Y-38300000D01*
X87855868Y-37325000D01*
X87948810Y-37325000D01*
X87980000Y-37328072D01*
X89255000Y-37328072D01*
X89398991Y-37313890D01*
X89537448Y-37271890D01*
X89665051Y-37203684D01*
X89776896Y-37111896D01*
X89868684Y-37000051D01*
X89936890Y-36872448D01*
X89978890Y-36733991D01*
X89993072Y-36590000D01*
X89993072Y-36390000D01*
X89978890Y-36246009D01*
X89954316Y-36165000D01*
X89978890Y-36083991D01*
X89993072Y-35940000D01*
X89993072Y-35740000D01*
X89978890Y-35596009D01*
X89954316Y-35515000D01*
X89978890Y-35433991D01*
X89993072Y-35290000D01*
X89993072Y-35090000D01*
X89978890Y-34946009D01*
X89954316Y-34865000D01*
X89978890Y-34783991D01*
X89993072Y-34640000D01*
X89993072Y-34440000D01*
X89978890Y-34296009D01*
X89954316Y-34215000D01*
X89978890Y-34133991D01*
X89993072Y-33990000D01*
X89993072Y-33790000D01*
X89978890Y-33646009D01*
X89954316Y-33565000D01*
X89978890Y-33483991D01*
X89993072Y-33340000D01*
X89993072Y-33140000D01*
X89978890Y-32996009D01*
X89967650Y-32958955D01*
X89978868Y-32923883D01*
X89990000Y-32821750D01*
X89831250Y-32663000D01*
X89813741Y-32663000D01*
X89776896Y-32618104D01*
X89665051Y-32526316D01*
X89647622Y-32517000D01*
X89831250Y-32517000D01*
X89990000Y-32358250D01*
X89978868Y-32256117D01*
X89940761Y-32136979D01*
X89880144Y-32027564D01*
X89799346Y-31932078D01*
X89701471Y-31854189D01*
X89590282Y-31796891D01*
X89470052Y-31762386D01*
X89345400Y-31752000D01*
X89308499Y-31752250D01*
X89401185Y-31676185D01*
X89480537Y-31579494D01*
X89539502Y-31469180D01*
X89575812Y-31349482D01*
X89588072Y-31225000D01*
X89585000Y-30785750D01*
X89426250Y-30627000D01*
X88577000Y-30627000D01*
X88577000Y-31701250D01*
X88735750Y-31860000D01*
X88797367Y-31860883D01*
X88744500Y-31913750D01*
X88744500Y-32401928D01*
X88627328Y-32401928D01*
X88617500Y-32400960D01*
X88607672Y-32401928D01*
X88490500Y-32401928D01*
X88490500Y-31913750D01*
X88331750Y-31755000D01*
X88269671Y-31754579D01*
X88323000Y-31701250D01*
X88323000Y-30627000D01*
X88303000Y-30627000D01*
X88303000Y-30373000D01*
X88323000Y-30373000D01*
X88323000Y-29298750D01*
X88577000Y-29298750D01*
X88577000Y-30373000D01*
X89426250Y-30373000D01*
X89585000Y-30214250D01*
X89588072Y-29775000D01*
X89575812Y-29650518D01*
X89539502Y-29530820D01*
X89480537Y-29420506D01*
X89401185Y-29323815D01*
X89304494Y-29244463D01*
X89194180Y-29185498D01*
X89074482Y-29149188D01*
X88950000Y-29136928D01*
X88735750Y-29140000D01*
X88577000Y-29298750D01*
X88323000Y-29298750D01*
X88164250Y-29140000D01*
X87950000Y-29136928D01*
X87825518Y-29149188D01*
X87705820Y-29185498D01*
X87595506Y-29244463D01*
X87498815Y-29323815D01*
X87433342Y-29403594D01*
X87427962Y-29397038D01*
X87293386Y-29286595D01*
X87139850Y-29204528D01*
X86973254Y-29153992D01*
X86800000Y-29136928D01*
X86300000Y-29136928D01*
X86126746Y-29153992D01*
X85960150Y-29204528D01*
X85806614Y-29286595D01*
X85672038Y-29397038D01*
X85561595Y-29531614D01*
X85522664Y-29604449D01*
X85490256Y-29582795D01*
X85301898Y-29504774D01*
X85101939Y-29465000D01*
X84898061Y-29465000D01*
X84698102Y-29504774D01*
X84509744Y-29582795D01*
X84340226Y-29696063D01*
X84196063Y-29840226D01*
X84082795Y-30009744D01*
X84004774Y-30198102D01*
X83965000Y-30398061D01*
X83965000Y-30601939D01*
X84004774Y-30801898D01*
X84082795Y-30990256D01*
X84196063Y-31159774D01*
X84340226Y-31303937D01*
X84442269Y-31372120D01*
X84348815Y-31448815D01*
X84324637Y-31478276D01*
X84243387Y-31411595D01*
X84089851Y-31329528D01*
X83923255Y-31278992D01*
X83750001Y-31261928D01*
X83224999Y-31261928D01*
X83051745Y-31278992D01*
X82885149Y-31329528D01*
X82731613Y-31411595D01*
X82597038Y-31522038D01*
X82486595Y-31656613D01*
X82428661Y-31765000D01*
X82215000Y-31765000D01*
X82215000Y-28167930D01*
X82294759Y-28114637D01*
X82494637Y-27914759D01*
X82651680Y-27679727D01*
X82759853Y-27418574D01*
X82815000Y-27141335D01*
X82815000Y-26858665D01*
X82759853Y-26581426D01*
X82651680Y-26320273D01*
X82494637Y-26085241D01*
X82294759Y-25885363D01*
X82059727Y-25728320D01*
X81798574Y-25620147D01*
X81521335Y-25565000D01*
X81238665Y-25565000D01*
X80961426Y-25620147D01*
X80700273Y-25728320D01*
X80465241Y-25885363D01*
X80265363Y-26085241D01*
X80108320Y-26320273D01*
X80000147Y-26581426D01*
X79945000Y-26858665D01*
X79945000Y-27141335D01*
X80000147Y-27418574D01*
X80108320Y-27679727D01*
X80265363Y-27914759D01*
X80465241Y-28114637D01*
X80545000Y-28167930D01*
X80545001Y-31594131D01*
X80158578Y-31980555D01*
X80126709Y-32006709D01*
X80100563Y-32038568D01*
X77787940Y-34351193D01*
X77656260Y-34325000D01*
X77363740Y-34325000D01*
X77076842Y-34382068D01*
X76835000Y-34482242D01*
X76835000Y-26345867D01*
X78345868Y-24835000D01*
X81658982Y-24835000D01*
X81700000Y-24839040D01*
X81741018Y-24835000D01*
X81741019Y-24835000D01*
X81863689Y-24822918D01*
X82021087Y-24775172D01*
X82166146Y-24697636D01*
X82293291Y-24593291D01*
X82319446Y-24561421D01*
X83582060Y-23298807D01*
X83713740Y-23325000D01*
X84006260Y-23325000D01*
X84293158Y-23267932D01*
X84563411Y-23155990D01*
X84806632Y-22993475D01*
X85013475Y-22786632D01*
X85130000Y-22612240D01*
X85246525Y-22786632D01*
X85453368Y-22993475D01*
X85696589Y-23155990D01*
X85966842Y-23267932D01*
X86253740Y-23325000D01*
X86546260Y-23325000D01*
X86833158Y-23267932D01*
X87103411Y-23155990D01*
X87346632Y-22993475D01*
X87553475Y-22786632D01*
X87670000Y-22612240D01*
X87786525Y-22786632D01*
X87993368Y-22993475D01*
X88105000Y-23068065D01*
X88105001Y-25571284D01*
X88075518Y-25574188D01*
X87955820Y-25610498D01*
X87845506Y-25669463D01*
X87748815Y-25748815D01*
X87669463Y-25845506D01*
X87610498Y-25955820D01*
X87574188Y-26075518D01*
X87561928Y-26200000D01*
X87561928Y-27800000D01*
X87574188Y-27924482D01*
X87610498Y-28044180D01*
X87669463Y-28154494D01*
X87748815Y-28251185D01*
X87845506Y-28330537D01*
X87955820Y-28389502D01*
X88075518Y-28425812D01*
X88200000Y-28438072D01*
X89800000Y-28438072D01*
X89924482Y-28425812D01*
X90044180Y-28389502D01*
X90154494Y-28330537D01*
X90251185Y-28251185D01*
X90330537Y-28154494D01*
X90389502Y-28044180D01*
X90425812Y-27924482D01*
X90438072Y-27800000D01*
X90438072Y-26200000D01*
X90425812Y-26075518D01*
X90389502Y-25955820D01*
X90330537Y-25845506D01*
X90251185Y-25748815D01*
X90154494Y-25669463D01*
X90044180Y-25610498D01*
X89924482Y-25574188D01*
X89800000Y-25561928D01*
X89775000Y-25561928D01*
X89775000Y-23068065D01*
X89886632Y-22993475D01*
X90093475Y-22786632D01*
X90210000Y-22612240D01*
X90326525Y-22786632D01*
X90533368Y-22993475D01*
X90776589Y-23155990D01*
X91046842Y-23267932D01*
X91333740Y-23325000D01*
X91626260Y-23325000D01*
X91913158Y-23267932D01*
X92183411Y-23155990D01*
X92426632Y-22993475D01*
X92633475Y-22786632D01*
X92755195Y-22604466D01*
X92824822Y-22721355D01*
G37*
%TD.AperFunction*%
D20*
X85439500Y-32473000D02*
X85459500Y-32473000D01*
X85459500Y-32727000D01*
X85439500Y-32727000D01*
X85439500Y-32747000D01*
X85185500Y-32747000D01*
X85185500Y-32727000D01*
X85165500Y-32727000D01*
X85165500Y-32473000D01*
X85185500Y-32473000D01*
X85185500Y-32453000D01*
X85439500Y-32453000D01*
X85439500Y-32473000D01*
%TA.AperFunction,Conductor*%
D21*
G36*
X85439500Y-32473000D02*
G01*
X85459500Y-32473000D01*
X85459500Y-32727000D01*
X85439500Y-32727000D01*
X85439500Y-32747000D01*
X85185500Y-32747000D01*
X85185500Y-32727000D01*
X85165500Y-32727000D01*
X85165500Y-32473000D01*
X85185500Y-32473000D01*
X85185500Y-32453000D01*
X85439500Y-32453000D01*
X85439500Y-32473000D01*
G37*
%TD.AperFunction*%
%TD*%
D20*
%TO.N,+5V*%
X101811859Y-20164893D02*
X101380285Y-20453262D01*
X101013262Y-20820285D01*
X100724893Y-21251859D01*
X100526261Y-21731399D01*
X100425000Y-22240475D01*
X100425000Y-22759525D01*
X100526261Y-23268601D01*
X100724893Y-23748141D01*
X101013262Y-24179715D01*
X101380285Y-24546738D01*
X101811859Y-24835107D01*
X102291399Y-25033739D01*
X102800475Y-25135000D01*
X103319525Y-25135000D01*
X103828601Y-25033739D01*
X104308141Y-24835107D01*
X104739715Y-24546738D01*
X105106738Y-24179715D01*
X105395107Y-23748141D01*
X105593739Y-23268601D01*
X105695000Y-22759525D01*
X105695000Y-22240475D01*
X105593739Y-21731399D01*
X105395107Y-21251859D01*
X105106738Y-20820285D01*
X104739715Y-20453262D01*
X104308141Y-20164893D01*
X104216659Y-20127000D01*
X107873000Y-20127000D01*
X107873000Y-50873000D01*
X95127000Y-50873000D01*
X95127000Y-47240475D01*
X100425000Y-47240475D01*
X100425000Y-47759525D01*
X100526261Y-48268601D01*
X100724893Y-48748141D01*
X101013262Y-49179715D01*
X101380285Y-49546738D01*
X101811859Y-49835107D01*
X102291399Y-50033739D01*
X102800475Y-50135000D01*
X103319525Y-50135000D01*
X103828601Y-50033739D01*
X104308141Y-49835107D01*
X104739715Y-49546738D01*
X105106738Y-49179715D01*
X105395107Y-48748141D01*
X105593739Y-48268601D01*
X105695000Y-47759525D01*
X105695000Y-47240475D01*
X105593739Y-46731399D01*
X105395107Y-46251859D01*
X105106738Y-45820285D01*
X104739715Y-45453262D01*
X104308141Y-45164893D01*
X103828601Y-44966261D01*
X103319525Y-44865000D01*
X102800475Y-44865000D01*
X102291399Y-44966261D01*
X101811859Y-45164893D01*
X101380285Y-45453262D01*
X101013262Y-45820285D01*
X100724893Y-46251859D01*
X100526261Y-46731399D01*
X100425000Y-47240475D01*
X95127000Y-47240475D01*
X95127000Y-39835000D01*
X95958982Y-39835000D01*
X96000000Y-39839040D01*
X96163689Y-39822918D01*
X96321087Y-39775172D01*
X96466146Y-39697636D01*
X96593291Y-39593291D01*
X96697636Y-39466146D01*
X96775172Y-39321087D01*
X96822918Y-39163689D01*
X96835000Y-39041019D01*
X96839040Y-39000000D01*
X96835000Y-38958981D01*
X96835000Y-37167325D01*
X98565001Y-38897327D01*
X98565000Y-40034983D01*
X98560960Y-40076002D01*
X98565000Y-40117020D01*
X98577082Y-40239690D01*
X98624828Y-40397088D01*
X98702364Y-40542147D01*
X98806709Y-40669293D01*
X98838579Y-40695448D01*
X100444562Y-42301433D01*
X100470708Y-42333292D01*
X100502567Y-42359438D01*
X100502569Y-42359440D01*
X100597853Y-42437637D01*
X100742912Y-42515173D01*
X100900310Y-42562919D01*
X101063999Y-42579041D01*
X101105017Y-42575001D01*
X102801177Y-42575001D01*
X102842195Y-42579041D01*
X102883213Y-42575001D01*
X102883214Y-42575001D01*
X103005884Y-42562919D01*
X103163282Y-42515173D01*
X103308341Y-42437637D01*
X103435486Y-42333292D01*
X103461641Y-42301422D01*
X105041426Y-40721637D01*
X105073291Y-40695487D01*
X105177636Y-40568342D01*
X105255172Y-40423283D01*
X105278143Y-40347557D01*
X105394759Y-40269637D01*
X105594637Y-40069759D01*
X105751680Y-39834727D01*
X105859853Y-39573574D01*
X105915000Y-39296335D01*
X105915000Y-39013665D01*
X105859853Y-38736426D01*
X105751680Y-38475273D01*
X105594637Y-38240241D01*
X105394759Y-38040363D01*
X105159727Y-37883320D01*
X104898574Y-37775147D01*
X104872699Y-37770000D01*
X104898574Y-37764853D01*
X105159727Y-37656680D01*
X105394759Y-37499637D01*
X105594637Y-37299759D01*
X105751680Y-37064727D01*
X105859853Y-36803574D01*
X105915000Y-36526335D01*
X105915000Y-36243665D01*
X105859853Y-35966426D01*
X105751680Y-35705273D01*
X105721204Y-35659663D01*
X106241427Y-35139441D01*
X106273292Y-35113290D01*
X106377637Y-34986145D01*
X106455173Y-34841086D01*
X106502919Y-34683688D01*
X106515001Y-34561018D01*
X106519041Y-34520000D01*
X106515001Y-34478981D01*
X106515001Y-32086019D01*
X106519041Y-32045001D01*
X106502919Y-31881313D01*
X106492210Y-31846008D01*
X106455173Y-31723914D01*
X106377637Y-31578855D01*
X106299440Y-31483571D01*
X106299438Y-31483569D01*
X106273292Y-31451710D01*
X106241434Y-31425565D01*
X105896286Y-31080417D01*
X105915000Y-30986335D01*
X105915000Y-30703665D01*
X105859853Y-30426426D01*
X105751680Y-30165273D01*
X105594637Y-29930241D01*
X105394759Y-29730363D01*
X105159727Y-29573320D01*
X104898574Y-29465147D01*
X104621335Y-29410000D01*
X104338665Y-29410000D01*
X104061426Y-29465147D01*
X103800273Y-29573320D01*
X103565241Y-29730363D01*
X103365363Y-29930241D01*
X103208320Y-30165273D01*
X103100147Y-30426426D01*
X103045000Y-30703665D01*
X103045000Y-30986335D01*
X103100147Y-31263574D01*
X103208320Y-31524727D01*
X103365363Y-31759759D01*
X103565241Y-31959637D01*
X103800273Y-32116680D01*
X104061426Y-32224853D01*
X104089882Y-32230513D01*
X103863708Y-32311397D01*
X103738486Y-32378329D01*
X103666903Y-32622298D01*
X104480000Y-33435395D01*
X104494143Y-33421253D01*
X104673748Y-33600858D01*
X104659605Y-33615000D01*
X104673748Y-33629143D01*
X104494143Y-33808748D01*
X104480000Y-33794605D01*
X104465858Y-33808748D01*
X104286253Y-33629143D01*
X104300395Y-33615000D01*
X103487298Y-32801903D01*
X103243329Y-32873486D01*
X103122429Y-33128996D01*
X103053700Y-33403184D01*
X103039783Y-33685512D01*
X103081213Y-33965130D01*
X103176397Y-34231292D01*
X103238059Y-34346654D01*
X103231003Y-34345959D01*
X103189985Y-34349999D01*
X103189984Y-34349999D01*
X103067314Y-34362081D01*
X103020401Y-34376312D01*
X102944437Y-34399355D01*
X102911680Y-34320273D01*
X102754637Y-34085241D01*
X102554759Y-33885363D01*
X102319727Y-33728320D01*
X102058574Y-33620147D01*
X102032699Y-33615000D01*
X102058574Y-33609853D01*
X102319727Y-33501680D01*
X102554759Y-33344637D01*
X102754637Y-33144759D01*
X102911680Y-32909727D01*
X103019853Y-32648574D01*
X103075000Y-32371335D01*
X103075000Y-32088665D01*
X103019853Y-31811426D01*
X102911680Y-31550273D01*
X102754637Y-31315241D01*
X102554759Y-31115363D01*
X102319727Y-30958320D01*
X102174275Y-30898072D01*
X102440000Y-30898072D01*
X102564482Y-30885812D01*
X102684180Y-30849502D01*
X102794494Y-30790537D01*
X102891185Y-30711185D01*
X102970537Y-30614494D01*
X103029502Y-30504180D01*
X103065812Y-30384482D01*
X103078072Y-30260000D01*
X103078072Y-28660000D01*
X103065812Y-28535518D01*
X103029502Y-28415820D01*
X102970537Y-28305506D01*
X102891185Y-28208815D01*
X102794494Y-28129463D01*
X102684180Y-28070498D01*
X102564482Y-28034188D01*
X102440000Y-28021928D01*
X100840000Y-28021928D01*
X100715518Y-28034188D01*
X100595820Y-28070498D01*
X100485506Y-28129463D01*
X100388815Y-28208815D01*
X100309463Y-28305506D01*
X100250498Y-28415820D01*
X100214188Y-28535518D01*
X100201928Y-28660000D01*
X100201928Y-29663733D01*
X100083490Y-29627805D01*
X99953477Y-29615000D01*
X99953469Y-29615000D01*
X99910000Y-29610719D01*
X99866531Y-29615000D01*
X98982976Y-29615000D01*
X98938405Y-29531614D01*
X98827962Y-29397038D01*
X98693386Y-29286595D01*
X98539850Y-29204528D01*
X98373254Y-29153992D01*
X98200000Y-29136928D01*
X97700000Y-29136928D01*
X97526746Y-29153992D01*
X97360150Y-29204528D01*
X97206614Y-29286595D01*
X97072038Y-29397038D01*
X97066658Y-29403594D01*
X97001185Y-29323815D01*
X96904494Y-29244463D01*
X96794180Y-29185498D01*
X96674482Y-29149188D01*
X96550000Y-29136928D01*
X96335750Y-29140000D01*
X96177000Y-29298750D01*
X96177000Y-30373000D01*
X96197000Y-30373000D01*
X96197000Y-30627000D01*
X96177000Y-30627000D01*
X96177000Y-31701250D01*
X96335750Y-31860000D01*
X96550000Y-31863072D01*
X96674482Y-31850812D01*
X96794180Y-31814502D01*
X96904494Y-31755537D01*
X97001185Y-31676185D01*
X97066658Y-31596406D01*
X97072038Y-31602962D01*
X97206614Y-31713405D01*
X97360150Y-31795472D01*
X97526746Y-31846008D01*
X97700000Y-31863072D01*
X98200000Y-31863072D01*
X98373254Y-31846008D01*
X98539850Y-31795472D01*
X98693386Y-31713405D01*
X98827962Y-31602962D01*
X98938405Y-31468386D01*
X98982976Y-31385000D01*
X99543422Y-31385000D01*
X100211983Y-32053561D01*
X100205000Y-32088665D01*
X100205000Y-32371335D01*
X100260147Y-32648574D01*
X100368320Y-32909727D01*
X100525363Y-33144759D01*
X100725241Y-33344637D01*
X100960273Y-33501680D01*
X101221426Y-33609853D01*
X101247301Y-33615000D01*
X101221426Y-33620147D01*
X100960273Y-33728320D01*
X100725241Y-33885363D01*
X100525363Y-34085241D01*
X100368320Y-34320273D01*
X100260147Y-34581426D01*
X100205000Y-34858665D01*
X100205000Y-35141335D01*
X100249491Y-35365001D01*
X99091499Y-35365001D01*
X96405075Y-32678579D01*
X96378920Y-32646709D01*
X96251775Y-32542364D01*
X96106716Y-32464828D01*
X95949318Y-32417082D01*
X95826648Y-32405000D01*
X95826647Y-32405000D01*
X95785629Y-32400960D01*
X95744611Y-32405000D01*
X95668250Y-32405000D01*
X95715000Y-32358250D01*
X95703868Y-32256117D01*
X95665761Y-32136979D01*
X95605144Y-32027564D01*
X95524346Y-31932078D01*
X95426471Y-31854189D01*
X95411904Y-31846682D01*
X95425518Y-31850812D01*
X95550000Y-31863072D01*
X95764250Y-31860000D01*
X95923000Y-31701250D01*
X95923000Y-30627000D01*
X95903000Y-30627000D01*
X95903000Y-30373000D01*
X95923000Y-30373000D01*
X95923000Y-29298750D01*
X95764250Y-29140000D01*
X95550000Y-29136928D01*
X95425518Y-29149188D01*
X95305820Y-29185498D01*
X95195506Y-29244463D01*
X95127000Y-29300684D01*
X95127000Y-24053868D01*
X95871427Y-23309441D01*
X95903290Y-23283292D01*
X95973597Y-23197623D01*
X96055901Y-23236825D01*
X96203110Y-23281476D01*
X96433000Y-23160155D01*
X96433000Y-21967000D01*
X96687000Y-21967000D01*
X96687000Y-23160155D01*
X96916890Y-23281476D01*
X97064099Y-23236825D01*
X97326920Y-23111641D01*
X97560269Y-22937588D01*
X97755178Y-22721355D01*
X97904157Y-22471252D01*
X98001481Y-22196891D01*
X97880814Y-21967000D01*
X96687000Y-21967000D01*
X96433000Y-21967000D01*
X96413000Y-21967000D01*
X96413000Y-21713000D01*
X96433000Y-21713000D01*
X96433000Y-20519845D01*
X96687000Y-20519845D01*
X96687000Y-21713000D01*
X97880814Y-21713000D01*
X98001481Y-21483109D01*
X97904157Y-21208748D01*
X97755178Y-20958645D01*
X97560269Y-20742412D01*
X97326920Y-20568359D01*
X97064099Y-20443175D01*
X96916890Y-20398524D01*
X96687000Y-20519845D01*
X96433000Y-20519845D01*
X96203110Y-20398524D01*
X96144999Y-20416150D01*
X96144999Y-20351018D01*
X96149039Y-20309999D01*
X96132917Y-20146310D01*
X96127059Y-20127000D01*
X101903341Y-20127000D01*
X101811859Y-20164893D01*
%TA.AperFunction,Conductor*%
D21*
G36*
X101811859Y-20164893D02*
G01*
X101380285Y-20453262D01*
X101013262Y-20820285D01*
X100724893Y-21251859D01*
X100526261Y-21731399D01*
X100425000Y-22240475D01*
X100425000Y-22759525D01*
X100526261Y-23268601D01*
X100724893Y-23748141D01*
X101013262Y-24179715D01*
X101380285Y-24546738D01*
X101811859Y-24835107D01*
X102291399Y-25033739D01*
X102800475Y-25135000D01*
X103319525Y-25135000D01*
X103828601Y-25033739D01*
X104308141Y-24835107D01*
X104739715Y-24546738D01*
X105106738Y-24179715D01*
X105395107Y-23748141D01*
X105593739Y-23268601D01*
X105695000Y-22759525D01*
X105695000Y-22240475D01*
X105593739Y-21731399D01*
X105395107Y-21251859D01*
X105106738Y-20820285D01*
X104739715Y-20453262D01*
X104308141Y-20164893D01*
X104216659Y-20127000D01*
X107873000Y-20127000D01*
X107873000Y-50873000D01*
X95127000Y-50873000D01*
X95127000Y-47240475D01*
X100425000Y-47240475D01*
X100425000Y-47759525D01*
X100526261Y-48268601D01*
X100724893Y-48748141D01*
X101013262Y-49179715D01*
X101380285Y-49546738D01*
X101811859Y-49835107D01*
X102291399Y-50033739D01*
X102800475Y-50135000D01*
X103319525Y-50135000D01*
X103828601Y-50033739D01*
X104308141Y-49835107D01*
X104739715Y-49546738D01*
X105106738Y-49179715D01*
X105395107Y-48748141D01*
X105593739Y-48268601D01*
X105695000Y-47759525D01*
X105695000Y-47240475D01*
X105593739Y-46731399D01*
X105395107Y-46251859D01*
X105106738Y-45820285D01*
X104739715Y-45453262D01*
X104308141Y-45164893D01*
X103828601Y-44966261D01*
X103319525Y-44865000D01*
X102800475Y-44865000D01*
X102291399Y-44966261D01*
X101811859Y-45164893D01*
X101380285Y-45453262D01*
X101013262Y-45820285D01*
X100724893Y-46251859D01*
X100526261Y-46731399D01*
X100425000Y-47240475D01*
X95127000Y-47240475D01*
X95127000Y-39835000D01*
X95958982Y-39835000D01*
X96000000Y-39839040D01*
X96163689Y-39822918D01*
X96321087Y-39775172D01*
X96466146Y-39697636D01*
X96593291Y-39593291D01*
X96697636Y-39466146D01*
X96775172Y-39321087D01*
X96822918Y-39163689D01*
X96835000Y-39041019D01*
X96839040Y-39000000D01*
X96835000Y-38958981D01*
X96835000Y-37167325D01*
X98565001Y-38897327D01*
X98565000Y-40034983D01*
X98560960Y-40076002D01*
X98565000Y-40117020D01*
X98577082Y-40239690D01*
X98624828Y-40397088D01*
X98702364Y-40542147D01*
X98806709Y-40669293D01*
X98838579Y-40695448D01*
X100444562Y-42301433D01*
X100470708Y-42333292D01*
X100502567Y-42359438D01*
X100502569Y-42359440D01*
X100597853Y-42437637D01*
X100742912Y-42515173D01*
X100900310Y-42562919D01*
X101063999Y-42579041D01*
X101105017Y-42575001D01*
X102801177Y-42575001D01*
X102842195Y-42579041D01*
X102883213Y-42575001D01*
X102883214Y-42575001D01*
X103005884Y-42562919D01*
X103163282Y-42515173D01*
X103308341Y-42437637D01*
X103435486Y-42333292D01*
X103461641Y-42301422D01*
X105041426Y-40721637D01*
X105073291Y-40695487D01*
X105177636Y-40568342D01*
X105255172Y-40423283D01*
X105278143Y-40347557D01*
X105394759Y-40269637D01*
X105594637Y-40069759D01*
X105751680Y-39834727D01*
X105859853Y-39573574D01*
X105915000Y-39296335D01*
X105915000Y-39013665D01*
X105859853Y-38736426D01*
X105751680Y-38475273D01*
X105594637Y-38240241D01*
X105394759Y-38040363D01*
X105159727Y-37883320D01*
X104898574Y-37775147D01*
X104872699Y-37770000D01*
X104898574Y-37764853D01*
X105159727Y-37656680D01*
X105394759Y-37499637D01*
X105594637Y-37299759D01*
X105751680Y-37064727D01*
X105859853Y-36803574D01*
X105915000Y-36526335D01*
X105915000Y-36243665D01*
X105859853Y-35966426D01*
X105751680Y-35705273D01*
X105721204Y-35659663D01*
X106241427Y-35139441D01*
X106273292Y-35113290D01*
X106377637Y-34986145D01*
X106455173Y-34841086D01*
X106502919Y-34683688D01*
X106515001Y-34561018D01*
X106519041Y-34520000D01*
X106515001Y-34478981D01*
X106515001Y-32086019D01*
X106519041Y-32045001D01*
X106502919Y-31881313D01*
X106492210Y-31846008D01*
X106455173Y-31723914D01*
X106377637Y-31578855D01*
X106299440Y-31483571D01*
X106299438Y-31483569D01*
X106273292Y-31451710D01*
X106241434Y-31425565D01*
X105896286Y-31080417D01*
X105915000Y-30986335D01*
X105915000Y-30703665D01*
X105859853Y-30426426D01*
X105751680Y-30165273D01*
X105594637Y-29930241D01*
X105394759Y-29730363D01*
X105159727Y-29573320D01*
X104898574Y-29465147D01*
X104621335Y-29410000D01*
X104338665Y-29410000D01*
X104061426Y-29465147D01*
X103800273Y-29573320D01*
X103565241Y-29730363D01*
X103365363Y-29930241D01*
X103208320Y-30165273D01*
X103100147Y-30426426D01*
X103045000Y-30703665D01*
X103045000Y-30986335D01*
X103100147Y-31263574D01*
X103208320Y-31524727D01*
X103365363Y-31759759D01*
X103565241Y-31959637D01*
X103800273Y-32116680D01*
X104061426Y-32224853D01*
X104089882Y-32230513D01*
X103863708Y-32311397D01*
X103738486Y-32378329D01*
X103666903Y-32622298D01*
X104480000Y-33435395D01*
X104494143Y-33421253D01*
X104673748Y-33600858D01*
X104659605Y-33615000D01*
X104673748Y-33629143D01*
X104494143Y-33808748D01*
X104480000Y-33794605D01*
X104465858Y-33808748D01*
X104286253Y-33629143D01*
X104300395Y-33615000D01*
X103487298Y-32801903D01*
X103243329Y-32873486D01*
X103122429Y-33128996D01*
X103053700Y-33403184D01*
X103039783Y-33685512D01*
X103081213Y-33965130D01*
X103176397Y-34231292D01*
X103238059Y-34346654D01*
X103231003Y-34345959D01*
X103189985Y-34349999D01*
X103189984Y-34349999D01*
X103067314Y-34362081D01*
X103020401Y-34376312D01*
X102944437Y-34399355D01*
X102911680Y-34320273D01*
X102754637Y-34085241D01*
X102554759Y-33885363D01*
X102319727Y-33728320D01*
X102058574Y-33620147D01*
X102032699Y-33615000D01*
X102058574Y-33609853D01*
X102319727Y-33501680D01*
X102554759Y-33344637D01*
X102754637Y-33144759D01*
X102911680Y-32909727D01*
X103019853Y-32648574D01*
X103075000Y-32371335D01*
X103075000Y-32088665D01*
X103019853Y-31811426D01*
X102911680Y-31550273D01*
X102754637Y-31315241D01*
X102554759Y-31115363D01*
X102319727Y-30958320D01*
X102174275Y-30898072D01*
X102440000Y-30898072D01*
X102564482Y-30885812D01*
X102684180Y-30849502D01*
X102794494Y-30790537D01*
X102891185Y-30711185D01*
X102970537Y-30614494D01*
X103029502Y-30504180D01*
X103065812Y-30384482D01*
X103078072Y-30260000D01*
X103078072Y-28660000D01*
X103065812Y-28535518D01*
X103029502Y-28415820D01*
X102970537Y-28305506D01*
X102891185Y-28208815D01*
X102794494Y-28129463D01*
X102684180Y-28070498D01*
X102564482Y-28034188D01*
X102440000Y-28021928D01*
X100840000Y-28021928D01*
X100715518Y-28034188D01*
X100595820Y-28070498D01*
X100485506Y-28129463D01*
X100388815Y-28208815D01*
X100309463Y-28305506D01*
X100250498Y-28415820D01*
X100214188Y-28535518D01*
X100201928Y-28660000D01*
X100201928Y-29663733D01*
X100083490Y-29627805D01*
X99953477Y-29615000D01*
X99953469Y-29615000D01*
X99910000Y-29610719D01*
X99866531Y-29615000D01*
X98982976Y-29615000D01*
X98938405Y-29531614D01*
X98827962Y-29397038D01*
X98693386Y-29286595D01*
X98539850Y-29204528D01*
X98373254Y-29153992D01*
X98200000Y-29136928D01*
X97700000Y-29136928D01*
X97526746Y-29153992D01*
X97360150Y-29204528D01*
X97206614Y-29286595D01*
X97072038Y-29397038D01*
X97066658Y-29403594D01*
X97001185Y-29323815D01*
X96904494Y-29244463D01*
X96794180Y-29185498D01*
X96674482Y-29149188D01*
X96550000Y-29136928D01*
X96335750Y-29140000D01*
X96177000Y-29298750D01*
X96177000Y-30373000D01*
X96197000Y-30373000D01*
X96197000Y-30627000D01*
X96177000Y-30627000D01*
X96177000Y-31701250D01*
X96335750Y-31860000D01*
X96550000Y-31863072D01*
X96674482Y-31850812D01*
X96794180Y-31814502D01*
X96904494Y-31755537D01*
X97001185Y-31676185D01*
X97066658Y-31596406D01*
X97072038Y-31602962D01*
X97206614Y-31713405D01*
X97360150Y-31795472D01*
X97526746Y-31846008D01*
X97700000Y-31863072D01*
X98200000Y-31863072D01*
X98373254Y-31846008D01*
X98539850Y-31795472D01*
X98693386Y-31713405D01*
X98827962Y-31602962D01*
X98938405Y-31468386D01*
X98982976Y-31385000D01*
X99543422Y-31385000D01*
X100211983Y-32053561D01*
X100205000Y-32088665D01*
X100205000Y-32371335D01*
X100260147Y-32648574D01*
X100368320Y-32909727D01*
X100525363Y-33144759D01*
X100725241Y-33344637D01*
X100960273Y-33501680D01*
X101221426Y-33609853D01*
X101247301Y-33615000D01*
X101221426Y-33620147D01*
X100960273Y-33728320D01*
X100725241Y-33885363D01*
X100525363Y-34085241D01*
X100368320Y-34320273D01*
X100260147Y-34581426D01*
X100205000Y-34858665D01*
X100205000Y-35141335D01*
X100249491Y-35365001D01*
X99091499Y-35365001D01*
X96405075Y-32678579D01*
X96378920Y-32646709D01*
X96251775Y-32542364D01*
X96106716Y-32464828D01*
X95949318Y-32417082D01*
X95826648Y-32405000D01*
X95826647Y-32405000D01*
X95785629Y-32400960D01*
X95744611Y-32405000D01*
X95668250Y-32405000D01*
X95715000Y-32358250D01*
X95703868Y-32256117D01*
X95665761Y-32136979D01*
X95605144Y-32027564D01*
X95524346Y-31932078D01*
X95426471Y-31854189D01*
X95411904Y-31846682D01*
X95425518Y-31850812D01*
X95550000Y-31863072D01*
X95764250Y-31860000D01*
X95923000Y-31701250D01*
X95923000Y-30627000D01*
X95903000Y-30627000D01*
X95903000Y-30373000D01*
X95923000Y-30373000D01*
X95923000Y-29298750D01*
X95764250Y-29140000D01*
X95550000Y-29136928D01*
X95425518Y-29149188D01*
X95305820Y-29185498D01*
X95195506Y-29244463D01*
X95127000Y-29300684D01*
X95127000Y-24053868D01*
X95871427Y-23309441D01*
X95903290Y-23283292D01*
X95973597Y-23197623D01*
X96055901Y-23236825D01*
X96203110Y-23281476D01*
X96433000Y-23160155D01*
X96433000Y-21967000D01*
X96687000Y-21967000D01*
X96687000Y-23160155D01*
X96916890Y-23281476D01*
X97064099Y-23236825D01*
X97326920Y-23111641D01*
X97560269Y-22937588D01*
X97755178Y-22721355D01*
X97904157Y-22471252D01*
X98001481Y-22196891D01*
X97880814Y-21967000D01*
X96687000Y-21967000D01*
X96433000Y-21967000D01*
X96413000Y-21967000D01*
X96413000Y-21713000D01*
X96433000Y-21713000D01*
X96433000Y-20519845D01*
X96687000Y-20519845D01*
X96687000Y-21713000D01*
X97880814Y-21713000D01*
X98001481Y-21483109D01*
X97904157Y-21208748D01*
X97755178Y-20958645D01*
X97560269Y-20742412D01*
X97326920Y-20568359D01*
X97064099Y-20443175D01*
X96916890Y-20398524D01*
X96687000Y-20519845D01*
X96433000Y-20519845D01*
X96203110Y-20398524D01*
X96144999Y-20416150D01*
X96144999Y-20351018D01*
X96149039Y-20309999D01*
X96132917Y-20146310D01*
X96127059Y-20127000D01*
X101903341Y-20127000D01*
X101811859Y-20164893D01*
G37*
%TD.AperFunction*%
%TD*%
M02*
